<?xml version="1.0" encoding="UTF-8"?>
<svg id="Layer_2" xmlns="http://www.w3.org/2000/svg" xmlns:xlink="http://www.w3.org/1999/xlink" viewBox="0 0 669.58 313.93">
  <defs>
    <style>
      .cls-1 {
        fill: #8f487a;
      }

      .cls-2 {
        fill: #e9794e;
      }

      .cls-3 {
        fill: url(#linear-gradient-8);
      }

      .cls-4 {
        fill: url(#linear-gradient-7);
      }

      .cls-5 {
        fill: url(#linear-gradient-5);
      }

      .cls-6 {
        fill: url(#linear-gradient-6);
      }

      .cls-7 {
        fill: url(#linear-gradient-9);
      }

      .cls-8 {
        fill: url(#linear-gradient-4);
      }

      .cls-9 {
        fill: url(#linear-gradient-3);
      }

      .cls-10 {
        fill: url(#linear-gradient-2);
      }

      .cls-11 {
        fill: url(#linear-gradient);
      }

      .cls-12 {
        fill: #f2966c;
      }

      .cls-13 {
        fill: #00864e;
      }

      .cls-14 {
        fill: #fff;
      }

      .cls-15 {
        fill: url(#linear-gradient-10);
      }

      .cls-16 {
        stroke: #8f487a;
        stroke-width: .6px;
      }

      .cls-16, .cls-17, .cls-18 {
        fill: none;
        stroke-miterlimit: 10;
      }

      .cls-19 {
        fill: #65577f;
      }

      .cls-17 {
        stroke: #ffae43;
      }

      .cls-17, .cls-18 {
        stroke-width: .5px;
      }

      .cls-20 {
        fill: #ffe42b;
      }

      .cls-18 {
        stroke: #f2966c;
      }
    </style>
    <linearGradient id="linear-gradient" x1="334.55" y1="46.23" x2="334.55" y2="267.33" gradientUnits="userSpaceOnUse">
      <stop offset="0" stop-color="#dc184c"/>
      <stop offset=".25" stop-color="#dd1f4a"/>
      <stop offset=".25" stop-color="#dd2149"/>
      <stop offset=".32" stop-color="#e7463e"/>
      <stop offset=".38" stop-color="#ee6137"/>
      <stop offset=".43" stop-color="#f27132"/>
      <stop offset=".47" stop-color="#f47731"/>
      <stop offset=".55" stop-color="#ee7333"/>
      <stop offset=".64" stop-color="#de6939"/>
      <stop offset=".75" stop-color="#c35844"/>
      <stop offset=".87" stop-color="#9e4152"/>
      <stop offset=".92" stop-color="#8f3859"/>
    </linearGradient>
    <linearGradient id="linear-gradient-2" x1="567.94" y1="138.5" x2="567.94" y2="247.84" gradientUnits="userSpaceOnUse">
      <stop offset=".35" stop-color="#c71b4f"/>
      <stop offset=".43" stop-color="#b61a4e"/>
      <stop offset=".59" stop-color="#8c184d"/>
      <stop offset=".75" stop-color="#5e164c"/>
      <stop offset=".76" stop-color="#5c164c"/>
      <stop offset=".87" stop-color="#4c1752"/>
      <stop offset=".95" stop-color="#471855"/>
    </linearGradient>
    <linearGradient id="linear-gradient-3" x1="509.64" y1="139.29" x2="509.64" y2="247.04" xlink:href="#linear-gradient-2"/>
    <linearGradient id="linear-gradient-4" x1="266.34" y1="139.29" x2="266.34" y2="245.16" xlink:href="#linear-gradient-2"/>
    <linearGradient id="linear-gradient-5" x1="208.17" y1="137.55" x2="208.17" y2="246.46" xlink:href="#linear-gradient-2"/>
    <linearGradient id="linear-gradient-6" x1="448.74" y1="137.55" x2="448.74" y2="246.9" xlink:href="#linear-gradient-2"/>
    <linearGradient id="linear-gradient-7" x1="146.36" y1="137.55" x2="146.36" y2="246.9" xlink:href="#linear-gradient-2"/>
    <linearGradient id="linear-gradient-8" x1="96.34" y1="137.55" x2="96.34" y2="245.16" xlink:href="#linear-gradient-2"/>
    <linearGradient id="linear-gradient-9" x1="392.76" y1="139.29" x2="392.76" y2="246.9" xlink:href="#linear-gradient-2"/>
    <linearGradient id="linear-gradient-10" x1="336.98" y1="137.7" x2="336.98" y2="246.9" xlink:href="#linear-gradient-2"/>
  </defs>
  <g id="Layer_1-2" data-name="Layer_1">
    <path class="cls-1" d="M669.02,117.83s1.92-23.66-36.22-39.14h-.16c33.2-12.65,35.64-31.21,35.75-35.4.16-2.95-.08-13.25-10.53-18.45,0,0-7.38-3.86-19.42.78,6.06-10.42,1.21-16.84,1.21-16.84-7.46-10.36-21.81-8.69-21.81-8.69h0c-7.94.58-29.42,4.47-44.52,29.12v.03C554.47-1.5,525.67.05,525.67.05c0,0-28.8-1.55-47.64,29.2C459.19-1.5,430.39.05,430.39.05s-28.8-1.55-47.64,29.2C363.9-1.5,335.1.05,335.1.05c0,0-28.8-1.55-47.64,29.2C268.62-1.5,239.82.05,239.82.05s-28.8-1.55-47.64,29.2C173.33-1.5,144.53.05,144.53.05c0,0-28.8-1.55-47.64,29.2h0C81.79,4.6,60.31.71,52.36.13h0s-14.35-1.67-21.81,8.69c0,0-4.85,6.42,1.21,16.84-12.03-4.65-19.42-.78-19.42-.78C1.9,30.07,1.66,40.38,1.82,43.32c.11,4.19,2.55,22.75,35.75,35.4h-.5C-1.07,94.2.85,117.86.85,117.86c0,0-1.92,23.66,36.22,39.14h.15C-.92,172.48,1.01,196.13,1.01,196.13c0,0-1.92,23.62,36.13,39.1h-.12C3.81,247.89,1.38,266.44,1.27,270.64c-.16,2.95.08,13.25,10.53,18.45,0,0,7.38,3.86,19.42-.78-6.06,10.42-1.21,16.84-1.21,16.84,7.46,10.36,21.81,8.69,21.81,8.69h0c7.94-.58,29.42-4.47,44.52-29.12v-.03c18.84,30.75,47.64,29.2,47.64,29.2,0,0,28.8,1.55,47.64-29.2,18.84,30.75,47.64,29.2,47.64,29.2,0,0,28.8,1.55,47.64-29.2,18.84,30.75,47.64,29.2,47.64,29.2,0,0,28.8,1.55,47.64-29.2,18.84,30.75,47.64,29.2,47.64,29.2,0,0,28.8,1.55,47.64-29.2,18.84,30.75,47.64,29.2,47.64,29.2,0,0,28.8,1.55,47.64-29.2h0c15.1,24.65,36.58,28.55,44.53,29.12h0s14.35,1.67,21.81-8.69c0,0,4.85-6.42-1.21-16.84,12.03,4.65,19.42.78,19.42.78,10.45-5.2,10.69-15.51,10.53-18.45-.11-4.2-2.55-22.75-35.75-35.4,38.14-15.48,36.79-39.1,36.79-39.1,0,0,1.92-23.66-36.22-39.14h.15c38.14-15.48,36.22-39.14,36.22-39.14ZM628.55,162.86s1.91-3.52,10.87-.82c1.52.46,27.69,12.99,27.58,34.06.11,21.07-26.06,33.61-27.58,34.06-8.97,2.7-10.87-.82-10.87-.82-2.67,5.08-8.25,5.85-8.25,5.85,0,0,5.1.75,7.74,5.46,0,0,1.88-3.26,10.73-.76,1.5.42,27.26,12.01,27.22,31.49,0,0,0,0,0,0,.02.82.09,6.13-1.21,8.77-5.84,11.8-18.07,8.65-18.07,8.65,0,0-12.62-1.35-14.23-12.86-1.61-11.51,4.73-5.55,4.73-5.55-1.4-3.46-3.93-3.34-3.98-3.33,0,0,0,0,0,0-6.99.56-7.34,5.56-7.34,5.56,0,0-.79,2.94.79,6.52-4.21-1.2-7.61-.57-7.61-.57,0,0-6.1.29-6.78,6.2,0,0-.19,2.17,4.07,3.36,0,0-6.78-5.98,7.26-4.62,14.04,1.36,15.69,12.01,15.69,12.01,0,0,3.36,10.95-11.05,15.89-2.04.7-5.4.93-7.84,1v-.03c-25.65.09-40.91-21.01-41.47-22.24-3.29-7.23.99-8.77.99-8.77-6.18-2.16-7.17-6.32-7.17-6.32h0s-.99,4.16-7.17,6.32c0,0,4.28,1.54.99,8.77-.56,1.22-15.82,22.33-41.47,22.24-25.65.09-40.91-21.01-41.47-22.24-3.29-7.23.99-8.77.99-8.77-6.18-2.16-7.17-6.32-7.17-6.32,0,0-.99,4.17-7.17,6.32,0,0,4.28,1.54.99,8.77-.56,1.22-15.82,22.33-41.47,22.24-25.65.09-40.91-21.01-41.47-22.24-3.29-7.23.99-8.77.99-8.77-6.18-2.16-7.17-6.32-7.17-6.32,0,0-.99,4.17-7.17,6.32,0,0,4.28,1.54.99,8.77-.56,1.22-15.82,22.33-41.47,22.24-25.65.09-40.91-21.01-41.47-22.24-3.29-7.23.99-8.77.99-8.77-6.18-2.15-7.17-6.32-7.17-6.32,0,0-.99,4.17-7.17,6.32,0,0,4.28,1.54.99,8.77-.56,1.22-15.82,22.33-41.47,22.24-25.65.09-40.91-21.01-41.47-22.24-3.29-7.23.99-8.77.99-8.77-6.18-2.15-7.17-6.32-7.17-6.32,0,0-.99,4.17-7.17,6.32,0,0,4.28,1.54.99,8.77-.56,1.22-15.82,22.33-41.47,22.24-25.65.09-40.91-21.01-41.47-22.24-3.29-7.23.99-8.77.99-8.77-6.18-2.16-7.17-6.32-7.17-6.32v.03s-.99,4.17-7.17,6.32c0,0,4.28,1.54.99,8.77-.56,1.22-15.82,22.33-41.47,22.24v.03c-2.44-.07-5.8-.3-7.84-1-14.4-4.93-11.05-15.89-11.05-15.89,0,0,1.65-10.65,15.69-12.01,14.04-1.36,7.26,4.62,7.26,4.62,4.26-1.19,4.07-3.36,4.07-3.36-.68-5.91-6.78-6.2-6.78-6.2,0,0-3.4-.63-7.61.57,1.58-3.58.79-6.52.79-6.52,0,0-.34-5-7.34-5.56,0,0,0,0,0,0-.05,0-2.59-.12-3.98,3.33,0,0,6.33-5.96,4.73,5.55-1.61,11.51-14.23,12.86-14.23,12.86,0,0-12.23,3.15-18.07-8.65-1.3-2.64-1.23-7.94-1.21-8.77,0,0,0,0,0,0-.04-19.48,25.72-31.07,27.22-31.49,8.85-2.5,10.73.76,10.73.76,2.34-4.18,6.62-5.24,7.55-5.42h.55s-5.17-.81-7.84-5.89c0,0-1.91,3.52-10.87.82-1.52-.46-27.69-12.99-27.58-34.06-.11-21.07,26.06-33.61,27.58-34.06,8.97-2.7,10.87.82,10.87.82,2.67-5.08,7.84-5.89,7.84-5.89h-.15s-5.17-.81-7.84-5.89c0,0-1.91,3.52-10.87.82-1.52-.46-27.69-12.99-27.58-34.06-.11-21.07,26.06-33.61,27.58-34.06,8.97-2.7,10.87.82,10.87.82,2.67-5.07,7.84-5.89,7.84-5.89h.34s-5.1-.75-7.74-5.46c0,0-1.88,3.26-10.73.76-1.5-.42-27.26-12.01-27.22-31.49,0,0,0,0,0,0-.02-.82-.09-6.13,1.21-8.77,5.84-11.8,18.07-8.65,18.07-8.65,0,0,12.62,1.35,14.23,12.86,1.61,11.51-4.73,5.55-4.73,5.55,1.4,3.46,3.93,3.34,3.98,3.33,0,0,0,0,0,0,6.99-.56,7.34-5.56,7.34-5.56,0,0,.79-2.94-.79-6.52,4.21,1.2,7.61.57,7.61.57,0,0,6.1-.29,6.78-6.2,0,0,.19-2.17-4.07-3.36,0,0,6.78,5.98-7.26,4.62s-15.69-12.01-15.69-12.01c0,0-3.36-10.95,11.05-15.89,2.04-.7,5.4-.93,7.84-1v.03c25.65-.09,40.91,21.01,41.47,22.24,3.29,7.23-.99,8.77-.99,8.77,6.18,2.16,7.17,6.32,7.17,6.32h0s.99-4.16,7.17-6.32c0,0-4.28-1.54-.99-8.77.56-1.22,15.82-22.33,41.47-22.24,25.65-.09,40.91,21.01,41.47,22.24,3.29,7.23-.99,8.77-.99,8.77,6.18,2.16,7.17,6.32,7.17,6.32,0,0,.99-4.17,7.17-6.32,0,0-4.28-1.54-.99-8.77.56-1.22,15.82-22.33,41.47-22.24,25.65-.09,40.91,21.01,41.47,22.24,3.29,7.23-.99,8.77-.99,8.77,6.18,2.16,7.17,6.32,7.17,6.32,0,0,.99-4.17,7.17-6.32,0,0-4.28-1.54-.99-8.77.56-1.22,15.82-22.33,41.47-22.24,25.65-.09,40.91,21.01,41.47,22.24,3.29,7.23-.99,8.77-.99,8.77,6.18,2.16,7.17,6.32,7.17,6.32,0,0,.99-4.17,7.17-6.32,0,0-4.28-1.54-.99-8.77.56-1.22,15.82-22.33,41.47-22.24,25.65-.09,40.91,21.01,41.47,22.24,3.29,7.23-.99,8.77-.99,8.77,6.18,2.16,7.17,6.32,7.17,6.32,0,0,.99-4.17,7.17-6.32,0,0-4.28-1.54-.99-8.77.56-1.22,15.82-22.33,41.47-22.24,25.65-.09,40.91,21.01,41.47,22.24,3.29,7.23-.99,8.77-.99,8.77,6.18,2.16,7.17,6.32,7.17,6.32v-.03s.99-4.17,7.17-6.32c0,0-4.28-1.54-.99-8.77.56-1.22,15.82-22.33,41.47-22.24v-.03c2.44.07,5.8.3,7.84,1,14.4,4.93,11.05,15.89,11.05,15.89,0,0-1.65,10.65-15.69,12.01-14.04,1.36-7.26-4.62-7.26-4.62-4.26,1.19-4.07,3.36-4.07,3.36.68,5.91,6.78,6.2,6.78,6.2,0,0,3.4.63,7.61-.57-1.58,3.58-.79,6.52-.79,6.52,0,0,.34,5,7.34,5.56,0,0,0,0,0,0,.05,0,2.59.12,3.98-3.33,0,0-6.33,5.96-4.73-5.55,1.61-11.51,14.23-12.86,14.23-12.86,0,0,12.23-3.15,18.07,8.65,1.3,2.64,1.23,7.94,1.21,8.77,0,0,0,0,0,0,.04,19.48-25.72,31.07-27.22,31.49-8.85,2.5-10.73-.76-10.73-.76-2.64,4.7-7.74,5.46-7.74,5.46h0s5.17.81,7.84,5.89c0,0,1.91-3.52,10.87-.82,1.52.46,27.69,12.99,27.58,34.06.11,21.07-26.06,33.61-27.58,34.06-8.97,2.7-10.87-.82-10.87-.82-2.67,5.08-7.84,5.89-7.84,5.89h-.15s5.17.81,7.84,5.89Z"/>
    <rect class="cls-11" x="58.02" y="46.23" width="553.06" height="221.1" rx="1.18" ry="1.18"/>
    <g>
      <path class="cls-20" d="M216.16,113.82l7.33-29.59,1.21-4.98c-5.48,2.49-7.96-5.69-2.2-9.1l4.41-2.21c5.76-3.41,10.67-.14,9.32,5.69l-1.21,4.91h.78c2.92-7.97,8.75-11.73,14.79-11.73s11.24,3.48,11.24,13.23c0,13.3-8.89,26.39-19.7,26.39-5.9,0-10.38-3.84-9.53-12.45h-.71c-.92,4.34-1.71,9.25-3.13,14.79l-1.35,5.19c-1.07,4.34-2.99,6.12-6.54,6.12s-5.62-2.56-4.69-6.26ZM250.08,83.88c0-3.91-2.28-6.12-6.26-6.12-5.9,0-10.1,5.26-10.1,10.88,0,3.49,2.13,6.33,6.47,6.33,6.04,0,9.89-5.26,9.89-11.09Z"/>
      <path class="cls-20" d="M308.69,72.86l-3.98,16-1.21,4.98c5.41-2.42,7.89,5.76,2.13,9.1l-4.41,2.21c-5.76,3.41-10.67.14-9.32-5.69l1.28-5.05h-.78c-3.34,9.46-9.46,11.88-14.29,11.88-6.76,0-10.67-4.77-8.32-13.51l2.13-8.25,1.28-4.91c-5.9,2.35-8.68-5.69-2.42-9.17l4.84-2.28c6.19-3.56,11.74-.28,10.31,5.55l-4.12,15.86c-1,3.63.21,5.83,3.56,5.83,4.12,0,7.33-3.48,8.25-7.18l3.77-15.58c1.07-4.2,2.84-5.83,6.4-5.83s5.76,2.49,4.91,6.05Z"/>
      <path class="cls-20" d="M312.67,113.82l7.33-29.59,1.21-4.98c-5.48,2.49-7.96-5.69-2.2-9.1l4.41-2.21c5.76-3.41,10.67-.14,9.32,5.69l-1.21,4.91h.78c2.92-7.97,8.75-11.73,14.79-11.73s11.24,3.48,11.24,13.23c0,13.3-8.89,26.39-19.7,26.39-5.9,0-10.38-3.84-9.53-12.45h-.71c-.92,4.34-1.71,9.25-3.13,14.79l-1.35,5.19c-1.07,4.34-2.99,6.12-6.54,6.12s-5.62-2.56-4.69-6.26ZM346.6,83.88c0-3.91-2.28-6.12-6.26-6.12-5.9,0-10.1,5.26-10.1,10.88,0,3.49,2.13,6.33,6.47,6.33,6.04,0,9.89-5.26,9.89-11.09Z"/>
      <path class="cls-20" d="M361.18,113.82l7.33-29.59,1.21-4.98c-5.48,2.49-7.96-5.69-2.2-9.1l4.41-2.21c5.76-3.41,10.67-.14,9.32,5.69l-1.21,4.91h.78c2.92-7.97,8.75-11.73,14.79-11.73s11.24,3.48,11.24,13.23c0,13.3-8.89,26.39-19.7,26.39-5.9,0-10.38-3.84-9.53-12.45h-.71c-.92,4.34-1.71,9.25-3.13,14.79l-1.35,5.19c-1.07,4.34-2.99,6.12-6.54,6.12s-5.62-2.56-4.69-6.26ZM395.1,83.88c0-3.91-2.28-6.12-6.26-6.12-5.9,0-10.1,5.26-10.1,10.88,0,3.49,2.13,6.33,6.47,6.33,6.04,0,9.89-5.26,9.89-11.09Z"/>
      <path class="cls-20" d="M402.22,111.76c0-3.63,2.35-5.9,5.48-5.9,4.2,0,3.56,4.2,8.32,4.2,2.84,0,4.69-1.64,6.97-4.62l-5.48-26.81c-5.9,2.92-8.61-5.83-2.99-8.82l3.56-1.92c4.27-2.28,8.18-.78,8.96,3.2l3.7,23.97c4.69-6.61,9.25-14.22,9.25-20.98,0-4.27,1.85-7.25,6.12-7.25,3.7,0,5.69,2.28,5.69,5.76,0,7.04-5.12,14.79-10.31,22.55-10.74,15.93-17.99,24.89-28.73,24.89-7.04,0-10.53-3.84-10.53-8.25Z"/>
    </g>
    <path class="cls-19" d="M96.89,24.26v-2.66S100.57,7.87,114.62.06c0,0-.83,2.28,0,4.84,0,0-13.43,5.41-17.74,19.36Z"/>
    <path class="cls-2" d="M107.04,25.3l2.68-2.84s7.92,7.33-3.59,13.92c0,0,6.69-7.28.91-11.08Z"/>
    <path class="cls-13" d="M103.61,38.88s5.26-.82,9.88-2.51,4.51-2.44,13.74-3.19c0,0-.43,3.55,3.44,5.69,0,0-6.87-2.79-11.7-1.94s-9.88,1.83-15.35,1.94Z"/>
    <path class="cls-19" d="M192.17,24.26v-2.66S188.49,7.87,174.44.06c0,0,.83,2.28,0,4.84,0,0,13.43,5.41,17.74,19.36Z"/>
    <path class="cls-2" d="M182.03,25.3l-2.68-2.84s-7.92,7.33,3.59,13.92c0,0-6.69-7.28-.91-11.08Z"/>
    <path class="cls-13" d="M185.45,38.88s-5.26-.82-9.88-2.51-4.51-2.44-13.74-3.19c0,0,.43,3.55-3.44,5.69,0,0,6.87-2.79,11.7-1.94,4.83.86,9.88,1.83,15.35,1.94Z"/>
    <g>
      <path class="cls-12" d="M97.13,2.76c-.08-.27-.17-.53-.24-.81,0,0,.07.31.24.81Z"/>
      <path class="cls-12" d="M191.93,2.76c.18-.5.24-.81.24-.81-.07.28-.16.54-.24.81Z"/>
      <path class="cls-12" d="M181.53,13.08c-9.03,3.71-13.03,6.11-13.71,11.61l-12.58.13s2.25,1.6,2.42,5.17c-.09.97-.52,3.57-2.67,5.73-2.26,2.26-5.71,3.41-10.27,3.41-.07,0-.13,0-.2,0v.25s0-.25,0-.25c-4.65.04-8.17-1.11-10.46-3.41-2.15-2.16-2.58-4.76-2.67-5.73.17-3.57,2.42-5.17,2.42-5.17l-12.58-.13c-.68-5.5-4.68-7.9-13.71-11.61-7.23-2.97-9.7-8.31-10.4-10.33,2.54,8.4,10.29,11.72,10.29,11.72,7,2.77,9.29,6.6,10.04,8.82.29.84.31,2.03.35,4.34l.09,2.26,12.99.2c.1,1.08.56,3.72,2.8,5.97,2.36,2.37,5.93,3.56,10.63,3.56.06,0,.13,0,.2,0,.07,0,.13,0,.2,0,4.7,0,8.27-1.2,10.63-3.56,2.24-2.25,2.71-4.89,2.8-5.97l12.99-.2.09-2.26c.05-2.31.07-3.49.35-4.34.75-2.21,3.04-6.05,10.04-8.82,0,0,7.75-3.32,10.29-11.72-.7,2.02-3.17,7.36-10.4,10.33Z"/>
    </g>
    <path class="cls-1" d="M167.62,13.49c-1.07-1.54-6.65-8.26-23.07-8.91-.02,0-.03,0-.05,0-16.41.65-22,7.37-23.07,8.91-.12.18-.1.42.05.58l2.46,2.57h0s3.04,3.67,3.04,3.67c.09.11.22.17.36.17l14.21-.08h.24s.16,3.82.16,3.82c0,.22-.13.42-.35.47-1.61.37-5.48,1.69-4.4,5.66,1.36,4.97,7.33,4.88,7.33,4.88,0,0,5.96.09,7.33-4.88,1.09-3.96-2.78-5.28-4.4-5.66-.22-.05-.36-.25-.35-.47l.16-3.82h.24s14.21.08,14.21.08c.14,0,.27-.06.36-.17l3.04-3.67h0s2.46-2.58,2.46-2.58c.15-.16.18-.4.05-.58ZM161.7,19.98l-14.02-.08h0s-1.21,0-1.21,0l.32,4.66c2.07,1.69,3.43,3.43,1.97,4.74-1.46,1.32-4.23,1.04-4.23,1.04,0,0-2.77.27-4.23-1.04-1.46-1.32-.09-3.05,1.97-4.74l.32-4.66h-1.21s0,0,0,0l-14.02.08-2.82-3.4c8.25-6.68,19.99-6.35,19.99-6.35,0,0,11.74-.33,19.99,6.35l-2.82,3.4Z"/>
    <polygon class="cls-1" points="34.22 45.88 31.36 42.84 26.82 42.87 27.01 55.46 18.9 59.72 22.1 56.59 26.39 55.31 26.27 42.46 31.76 42.46 34.22 45.88"/>
    <path class="cls-17" d="M37.86,50.64s11.54.16,11.49-10.28"/>
    <path class="cls-12" d="M96.52,2.65s-1.61,7.42-10.64,11.14-13.03,6.11-13.71,11.61l-12.58.13s2.31,1.63,2.44,5.28l13.48-.21.09-2.26c.05-2.31.07-3.49.35-4.34.75-2.21,3.04-6.05,10.04-8.82,0,0,8.27-3.52,10.53-12.53Z"/>
    <path class="cls-18" d="M62.28,30.3s.11,9.88-13.41,9.78"/>
    <path class="cls-19" d="M1.82,1.5s3.44,2.24,10.13,1.23c0,0,0,6.48,6.28,10.74,0,0,.47-.07,0-1.37s-2.94-4.38-3.74-8.7c0,0,.8,1.17,2.65,1.05s2.47-1.11,2.47-1.11c0,0-1.6,10.67,4.44,14.74,0,0-4.13-12.03.49-15.48,0,0,2.53.74,6.72-.99,0,0-9.99,5.74-2.59,21.47,0,0-17.27-6.79-26.22,2.71,0,0,1.91-5.68,1.08-5.99,0,0,3.53-3.7,18.66-.04,0,0-1.98-5.51-17.82-3.66,0,0,1.28-2.21-.04-4.01,0,0,4.81-.31,11.95,2.78,0,0,.62-.31-.04-1.01s-4.81-4.5-12.66-3.88c0,0,.85-6.12-1.76-8.47Z"/>
    <path class="cls-1" d="M69.26,17.05l3.81-2.46s-8.12-9.11-23.82-9.08c-15.7.04-14.73,10.24-14.73,10.24,0,0,.26,9.58,11.8,10.04l-.13-1.48s-12.45-1.04-9.08-9.85c1.67-4.37,24.44-6.92,32.15,2.59Z"/>
    <path class="cls-19" d="M96.89,24.23v-2.66S93.2,7.85,79.15.03c0,0,.83,2.28,0,4.84,0,0,13.43,5.41,17.74,19.36Z"/>
    <polygon class="cls-1" points="56.18 27.28 52.48 24.87 52.51 21.03 67.87 21.19 73.07 14.59 69.26 17.05 67.69 20.67 52.01 20.57 52.01 25.2 56.18 27.28"/>
    <path class="cls-2" d="M87.17,26.07l-2.68-2.84s-7.92,7.33,3.59,13.92c0,0-6.69-7.28-.91-11.08Z"/>
    <path class="cls-13" d="M90.59,39.65s-5.26-.82-9.88-2.51-4.51-2.44-13.74-3.19c0,0,.43,3.55-3.44,5.69,0,0,6.87-2.79,11.7-1.94s9.88,1.83,15.35,1.94Z"/>
    <polygon class="cls-1" points="46.18 24.31 46.99 24.62 46.99 31.54 45.83 31.16 45.58 24.31 46.18 24.31"/>
    <path class="cls-1" d="M22.1,56.59l-3.2,3.12s-11.83-6.65-11.78-19.53c.05-12.87,13.29-12.08,13.29-12.08,0,0,12.43.21,13.03,9.67l-1.92-.11s-1.35-10.2-12.79-7.44c-5.67,1.37-8.98,20.03,3.36,26.35Z"/>
    <polygon class="cls-1" points="31.52 37.6 31.85 38.26 39.3 38.26 38.89 37.31 31.52 37.1 31.52 37.6"/>
    <path class="cls-12" d="M5.41,76.87s8.68-1.19,13.06-8.14,7.2-10.02,13.62-10.5l.21-9.71s1.89,1.79,6.16,1.92l-.31,10.4-2.64.05c-2.69.02-4.08.03-5.07.24-2.59.56-7.08,2.31-10.34,7.69,0,0-4.16,6.36-14.69,8.04Z"/>
    <path class="cls-13" d="M48.87,73.72s-1.01-4.29-3.07-8.06-2.98-3.68-3.9-11.22c0,0,4.35.35,6.97-2.8,0,0-3.42,5.61-2.37,9.55s2.24,8.06,2.37,12.53Z"/>
    <path class="cls-2" d="M32.03,70.4l-3.58-1.97s10.01-6.16,17.85,4.08c0,0-9.22-7.07-14.27-2.12Z"/>
    <path class="cls-19" d="M30.7,78.73h-3.16s-16.32-2.88-25.61-13.87c0,0,2.71.65,5.75,0,0,0,6.43,10.5,23.01,13.87Z"/>
    <path class="cls-20" d="M286.79,102.72c.12.13.31.13.43,0,.62-.65,2.44-1.89,3.53-1.78.85.09.88,1.04,1.08,1.75.08.29.43.39.66.2l3.54-3.5-2.21-4.97h-2.93l-5.13,7.18,1.04,1.12Z"/>
    <path class="cls-20" d="M230.12,101.38c.09.11.12.97.14.82.06-.58.88-2.67,1.58-2.65.55.02,1.24.69,1.46,1.38.09.28.32.35.44.14l1.77-3.77-2.05-4.74-1.85.25-2.29,7.55.8,1.02Z"/>
    <path class="cls-20" d="M239.23,72.58c-.09-.11-.86.97-.93,1.1-.37.62-.63,1.01-1.33.99-.81-.02-.42-2.55-.55-3.15-.06-.29-.69,1.15-.81,1.36l-1.77,3.77,2.05,4.74,1.84-1.92,2.29-5.87-.8-1.02Z"/>
    <path class="cls-20" d="M326.64,101.25c.09.11.12.97.14.82.06-.58.88-2.67,1.58-2.65.55.02,1.24.69,1.46,1.38.09.28.32.35.44.14l1.77-3.77-2.05-4.74-1.85.25-2.29,7.55.8,1.02Z"/>
    <path class="cls-20" d="M335.75,72.45c-.09-.11-.86.97-.93,1.1-.37.62-.63,1.01-1.33.99-.81-.02-.42-2.55-.55-3.15-.06-.29-.69,1.15-.81,1.36l-1.77,3.77,2.05,4.74,1.84-1.92,2.29-5.87-.8-1.02Z"/>
    <path class="cls-20" d="M375.14,101.25c.09.11.12.97.14.82.06-.58.88-2.67,1.58-2.65.55.02,1.24.69,1.46,1.38.09.28.32.35.44.14l1.77-3.77-2.05-4.74-1.85.25-2.29,7.55.8,1.02Z"/>
    <path class="cls-20" d="M384.25,72.45c-.09-.11-.86.97-.93,1.1-.37.62-.63,1.01-1.33.99-.81-.02-.42-2.55-.55-3.15-.06-.29-.69,1.15-.81,1.36l-1.77,3.77,2.05,4.74,1.84-1.92,2.29-5.87-.8-1.02Z"/>
    <path class="cls-19" d="M30.3,157h-3.29s-17.03-3.03-26.72-14.57c0,0,2.83.68,6,0,0,0,6.71,11.03,24.01,14.57Z"/>
    <path class="cls-2" d="M32.17,148.66l-3.52-2.2s9.09-6.51,17.26,2.95c0,0-9.03-5.5-13.74-.75Z"/>
    <path class="cls-13" d="M49.01,151.47s-1.02-4.32-3.11-8.11-3.02-3.7-3.95-11.29c0,0,4.4.35,7.06-2.82,0,0-3.47,5.64-2.4,9.61,1.07,3.97,2.27,8.11,2.4,12.61Z"/>
    <path class="cls-12" d="M3.21,157s9.21-1.32,13.81-8.74c4.6-7.42,7.58-10.7,14.4-11.26l.16-10.34s2.02,1.9,6.55,2l-.26,11.07-2.8.07c-2.86.04-4.33.06-5.38.29-2.74.62-7.5,2.5-10.93,8.25,0,0-4.37,6.8-15.54,8.65Z"/>
    <polyline class="cls-16" points="25.78 120.22 25.88 132.06 21.23 134.61"/>
    <path class="cls-18" d="M37.5,128.87s12.25.09,12.13-11.01"/>
    <polygon class="cls-1" points="25.46 119.45 31.25 119.71 31.31 119.97 26.09 120.11 26.09 120.48 25.47 120.45 25.46 119.45"/>
    <path class="cls-19" d="M30.8,78.73h-3.29s-17.03,3.03-26.72,14.57c0,0,2.83-.68,6,0,0,0,6.71-11.03,24.01-14.57Z"/>
    <path class="cls-2" d="M32.17,87.06l-3.52,2.2s9.09,6.51,17.26-2.95c0,0-9.03,5.5-13.74.75Z"/>
    <path class="cls-13" d="M49.01,84.25s-1.02,4.32-3.11,8.11c-2.09,3.79-3.02,3.7-3.95,11.29,0,0,4.4-.35,7.06,2.82,0,0-3.47-5.64-2.4-9.61s2.27-8.11,2.4-12.61Z"/>
    <path class="cls-12" d="M3.21,78.73s9.21,1.32,13.81,8.74,7.58,10.7,14.4,11.26l.16,10.34s2.02-1.9,6.55-2l-.26-11.07-2.8-.07c-2.86-.04-4.33-.06-5.38-.29-2.74-.62-7.5-2.5-10.93-8.25,0,0-4.37-6.8-15.54-8.65Z"/>
    <path class="cls-1" d="M13.47,117.86s-.43-9.94,8.25-16.72l-3.81-2.41s-10.54,3.88-11.44,19.13c.91,15.25,11.44,19.13,11.44,19.13l3.81-2.41c-8.68-6.78-8.25-16.72-8.25-16.72Z"/>
    <polyline class="cls-16" points="25.78 115.5 25.88 103.66 21.23 101.11"/>
    <path class="cls-1" d="M38.42,111.84c-6.16-1.12-7.18,4.17-7.18,4.17,2.1-1.7,4.25-2.82,5.88-1.62s1.29,3.47,1.29,3.47c0,0,.34,2.28-1.29,3.47-1.63,1.2-3.79.08-5.88-1.62,0,0,1.01,5.29,7.18,4.17,6.16-1.12,6.05-6.02,6.05-6.02,0,0,.12-4.9-6.05-6.02Z"/>
    <path class="cls-18" d="M37.5,106.85s12.25-.09,12.13,11.01"/>
    <polygon class="cls-1" points="25.46 116.27 31.25 116.01 31.31 115.76 26.09 115.61 26.09 115.24 25.47 115.28 25.46 116.27"/>
    <g>
      <path class="cls-10" d="M567.91,247.84c-8.34,0-14.63-8.63-14.63-20.08v-18.46l-14.11-40.58c-3.23-8.33-2.64-18.31,1.45-24.28,2.66-3.9,6.53-5.95,11.18-5.95,5.79,0,10.2,3.99,12.4,11.25l.04.15,3.68,14.9,3.77-15.02c2.14-7.27,6.62-11.27,12.6-11.27,4.56,0,8.36,2.04,10.98,5.89,4.08,5.98,4.64,15.99,1.37,24.36l-14.21,40.42v18.6c0,11.45-6.25,20.08-14.53,20.08Z"/>
      <path class="cls-14" d="M584.31,141.5c10.96,0,13.92,15.05,9.53,26.2l-14.39,40.96v19.11c0,10.42-5.43,17.08-11.53,17.08s-11.63-6.66-11.63-17.08v-18.96l-14.3-41.11c-4.29-11-1.43-26.2,9.82-26.2,4.57,0,7.82,3.47,9.53,9.12l6.48,26.2h.19l6.58-26.2c1.62-5.5,4.77-9.12,9.72-9.12M584.31,135.5c-7.32,0-12.96,4.89-15.48,13.42l-.03.12-.03.12-.81,3.23-.79-3.21-.04-.15-.05-.15c-2.58-8.5-8.15-13.37-15.27-13.37-5.61,0-10.46,2.58-13.66,7.26-4.67,6.84-5.39,17.68-1.79,27.01l13.93,40.05v17.95c0,13.16,7.58,23.08,17.63,23.08s17.53-9.92,17.53-23.08v-18.08l14.02-39.89c3.65-9.37,2.97-20.24-1.7-27.09-3.16-4.64-7.94-7.2-13.46-7.2h0Z"/>
    </g>
    <g>
      <path class="cls-9" d="M495.45,247.04c-7.22,0-14.53-6.9-14.53-20.08v-67.59c0-12.01,5.34-20.08,13.29-20.08h19.35c15.31,0,24.45,12.43,24.45,33.25,0,7.4-1.29,19.39-8.9,25.68,4.17,3.12,5.73,7.86,6.64,12.37l1.9,9.1c1.75,8.35.28,16.43-3.94,21.63-2.84,3.5-6.72,5.43-10.92,5.43-7.25,0-11.72-4.05-13.62-12.36-2.17,8.33-7.98,12.65-13.73,12.65Z"/>
      <path class="cls-14" d="M513.56,142.29c13.54,0,21.45,10.86,21.45,30.25,0,14.62-4.67,23.3-12.39,25.91,7.15,1.88,9.05,7.09,10.2,12.74l1.91,9.12c2.76,13.17-3.34,23.45-11.91,23.45-6.29,0-9.82-3.62-11.15-12.45l-2.29-15.49c-.67-4.63-1.24-8.54-2-9.26l-.29-.29v20.7c0,10.56-5.43,17.08-11.63,17.08s-11.53-6.51-11.53-17.08v-67.59c0-10.42,4.29-17.08,10.29-17.08h19.35M507.07,186.29h1.43c2.19,0,3.14-2.32,3.14-6.8s-1.62-5.79-3.43-5.79h-1.14v12.59M513.56,136.29h-19.35c-8.11,0-16.29,7.14-16.29,23.08v67.59c0,15.15,8.82,23.08,17.53,23.08,5.05,0,10.15-2.64,13.55-7.78,2.95,4.98,7.56,7.49,13.81,7.49,5.12,0,9.82-2.32,13.24-6.54,4.85-5.98,6.51-14.77,4.54-24.14l-1.91-9.11c-.55-2.69-1.56-7.7-5.21-11.79,6.37-7.3,7.53-18.45,7.53-25.62,0-10.89-2.28-19.6-6.76-25.88-4.84-6.78-11.99-10.37-20.68-10.37h0Z"/>
    </g>
    <g>
      <path class="cls-8" d="M254.28,245.16c-7.89,0-13.2-8.07-13.2-20.08v-65.71c0-11.82,5.43-20.08,13.2-20.08h22.4c9.01,0,13.87,10.2,13.87,19.79,0,8.91-4.19,18.34-12,19.64,3.16,1.6,5.71,5.42,5.71,12.49,0,9.47-4.91,13.71-9.77,13.71-1.55,0-2.97-.15-4.25-.45v1.11h7.49c6.89,0,13.87,6.8,13.87,19.79,0,9.59-4.86,19.79-13.87,19.79h-23.45Z"/>
      <path class="cls-14" d="M276.68,142.29c5.15,0,10.87,5.64,10.87,16.79s-5.72,16.79-10.87,16.79h-9.44v8.1l1.53-1.16c1.81-1.3,3.53-2.03,5.81-2.03,3.91,0,6.67,3.47,6.67,10.42s-3.24,10.71-6.77,10.71c-2,0-3.91-.29-5.43-1.01l-1.81-.87v8.54h10.48c5.24,0,10.87,5.64,10.87,16.79s-5.72,16.79-10.87,16.79h-23.45c-5.91,0-10.2-6.66-10.2-17.08v-65.71c0-10.28,4.29-17.08,10.2-17.08h22.4M276.68,136.29h-22.4c-9.54,0-16.2,9.49-16.2,23.08v65.71c0,15.94,8.14,23.08,16.2,23.08h23.45c4.62,0,9.06-2.42,12.19-6.65,3.06-4.14,4.68-9.72,4.68-16.14,0-11.6-5.1-18.91-11.29-21.61.28-.32.54-.66.8-1.02,2.1-2.97,3.16-6.85,3.16-11.53,0-5.19-1.25-8.94-3.14-11.54,1.77-1.11,3.39-2.61,4.75-4.45,3.06-4.14,4.68-9.72,4.68-16.14s-1.62-12-4.68-16.14c-3.12-4.23-7.57-6.65-12.19-6.65h0Z"/>
    </g>
    <g>
      <path class="cls-5" d="M208.17,246.46c-7.88,0-17.45-2.93-21.45-25.79l-9.06-51.96c-1.93-11.25-.34-20.89,4.37-26.47,2.55-3.02,5.94-4.69,9.55-4.69,4.94,0,13.49,2.49,15.18,19.2l1.4,13.77,1.4-13.77c1.69-16.7,10.24-19.2,15.18-19.2,3.61,0,7,1.66,9.55,4.69,4.7,5.58,6.29,15.23,4.37,26.47l-9.06,51.97c-4,22.86-13.56,25.79-21.45,25.79Z"/>
      <path class="cls-14" d="M224.75,140.55c7.91,0,13.92,10.42,10.96,27.65l-9.05,51.96c-3.62,20.7-11.34,23.3-18.49,23.3s-14.87-2.61-18.49-23.3l-9.06-51.96c-2.95-17.22,3.05-27.65,10.96-27.65,6.58,0,11.06,5.21,12.2,16.5l4.38,43.13,4.38-43.13c1.14-11.29,5.62-16.5,12.2-16.5M224.75,134.55c-5.24,0-9.7,2.2-12.9,6.36-1.55,2.02-2.78,4.49-3.69,7.41-.91-2.92-2.14-5.4-3.69-7.41-3.2-4.16-7.66-6.36-12.9-6.36-4.51,0-8.72,2.04-11.85,5.75-2.61,3.1-4.45,7.36-5.3,12.31-.86,4.96-.76,10.54.27,16.6l9.06,51.98c3.38,19.29,11.13,28.27,24.4,28.27,3.91,0,9.69-.58,14.79-5.62,4.6-4.55,7.74-11.95,9.62-22.65l9.06-51.97c1.04-6.07,1.13-11.65.28-16.61-.85-4.95-2.69-9.21-5.3-12.31-3.13-3.71-7.33-5.75-11.85-5.75h0Z"/>
    </g>
    <g>
      <path class="cls-6" d="M448.79,246.9c-19.54,0-32.17-21.46-32.17-54.67s12.63-54.67,32.17-54.67c9.4,0,17.71,5.39,23.42,15.17,5.66,9.71,8.65,23.37,8.65,39.51s-2.99,29.8-8.65,39.5c-5.7,9.78-14.02,15.17-23.42,15.17Z"/>
      <path class="cls-14" d="M448.79,140.55c16.78,0,29.07,19.25,29.07,51.67s-12.3,51.67-29.07,51.67-29.17-19.25-29.17-51.67,12.3-51.67,29.17-51.67M448.79,134.55c-10.55,0-19.81,5.91-26.09,16.65-5.94,10.16-9.08,24.34-9.08,41.02s3.14,30.86,9.08,41.02c6.28,10.74,15.54,16.65,26.09,16.65s19.74-5.91,26.01-16.65c5.93-10.16,9.06-24.35,9.06-41.02s-3.13-30.85-9.06-41.02c-6.26-10.74-15.5-16.66-26.01-16.66h0Z"/>
    </g>
    <g>
      <path class="cls-4" d="M146.41,246.9c-19.54,0-32.17-21.46-32.17-54.67s12.63-54.67,32.17-54.67c9.4,0,17.71,5.39,23.42,15.17,5.66,9.71,8.65,23.37,8.65,39.51s-2.99,29.8-8.65,39.5c-5.7,9.78-14.02,15.17-23.42,15.17Z"/>
      <path class="cls-14" d="M146.41,140.55c16.78,0,29.07,19.25,29.07,51.67s-12.3,51.67-29.07,51.67-29.17-19.25-29.17-51.67,12.3-51.67,29.17-51.67M146.41,134.55c-10.55,0-19.81,5.91-26.09,16.65-5.94,10.16-9.08,24.34-9.08,41.02s3.14,30.86,9.08,41.02c6.28,10.74,15.54,16.65,26.09,16.65s19.74-5.91,26.01-16.65c5.93-10.16,9.06-24.35,9.06-41.02s-3.13-30.85-9.06-41.02c-6.26-10.74-15.5-16.66-26.01-16.66h0Z"/>
    </g>
    <g>
      <path class="cls-3" d="M88.76,245.16c-9.52,0-14.34-6.75-14.34-20.08v-67.45c0-13.18,7.31-20.08,14.53-20.08,8.48,0,14.63,8.45,14.63,20.08v47.95h.81c9.01,0,13.87,10.2,13.87,19.79s-4.86,19.79-13.87,19.79h-15.63Z"/>
      <path class="cls-14" d="M88.96,140.55c6.29,0,11.63,6.51,11.63,17.08v50.95h3.81c5.15,0,10.87,5.64,10.87,16.79s-5.72,16.79-10.87,16.79h-15.63c-8.29,0-11.34-6.51-11.34-17.08v-67.45c0-10.57,5.34-17.08,11.53-17.08M88.96,134.55c-8.71,0-17.53,7.93-17.53,23.08v67.45c0,6.72,1.12,11.83,3.44,15.63,2.07,3.4,6.17,7.45,13.9,7.45h15.63c4.62,0,9.06-2.42,12.19-6.65,3.06-4.14,4.68-9.72,4.68-16.14s-1.62-12-4.68-16.14c-2.63-3.55-6.19-5.83-10-6.47v-45.13c0-15.15-8.87-23.08-17.63-23.08h0Z"/>
    </g>
    <g>
      <path class="cls-7" d="M392.47,246.9c-8.29,0-14.53-8.57-14.53-19.93v-47.08c-6.46-1.06-12.49-7.96-12.49-20.22,0-13.37,7.17-20.37,14.25-20.37h26.12c7.08,0,14.25,7,14.25,20.37,0,12.56-6.33,19.5-12.96,20.29v47.01c0,11.36-6.29,19.93-14.63,19.93Z"/>
      <path class="cls-14" d="M405.81,142.29c5.43,0,11.25,5.94,11.25,17.37s-5.81,17.37-11.25,17.37h-1.72v49.94c0,10.28-5.43,16.93-11.63,16.93s-11.53-6.51-11.53-16.93v-49.94h-1.24c-5.43,0-11.25-5.93-11.25-17.37s5.81-17.37,11.25-17.37h26.12M405.81,136.29h-26.12c-8.57,0-17.25,8.03-17.25,23.37,0,12.47,5.74,20.11,12.49,22.53v44.77c0,13.07,7.54,22.93,17.53,22.93s17.63-9.86,17.63-22.93v-44.61c6.96-2.23,12.96-9.93,12.96-22.69,0-15.34-8.68-23.37-17.25-23.37h0Z"/>
    </g>
    <g>
      <path class="cls-15" d="M336.45,246.9c-7.29,0-14.47-2.7-19.72-7.41-5.75-5.16-8.92-12.44-8.92-20.49,0-9.64,5.13-17.18,11.67-17.18.83,0,1.64.1,2.43.3-7.05-3.68-13.25-10.63-13.25-28.27,0-22.29,10.86-36.15,28.35-36.15s28.16,10.22,28.16,25.43c0,11.22-4.66,17.75-9.84,19.19,6.14,4.1,10.79,11.57,10.79,26.4,0,22.47-12.21,38.17-29.69,38.17ZM325.22,203.61c1.17.78,2.32,1.82,3.48,3.13.18.2.38.43.57.66,1.54,1.78,2.55,2.95,5.37,2.95,1.88,0,1.96-.22,1.96-1.92,0-.86-.87-1.32-4.9-2.6-.49-.16-1-.32-1.52-.49-1.61-.53-3.28-1.08-4.96-1.74ZM338.28,173.52c-.06.12-.16.41-.16.91,0,1.14,1.13,2.15,6.63,3.61-2.16-2.14-4.67-4.52-6.39-4.52-.03,0-.06,0-.08,0Z"/>
      <path class="cls-14" d="M337.03,140.7c14.58,0,25.16,8.39,25.16,22.43,0,10.28-4.48,16.5-9.05,16.5-1.81,0-3.53-1.01-5.72-3.18-3.34-3.33-6.1-5.94-9.06-5.94-2.19,0-3.24,1.74-3.24,3.91,0,3.76,3.81,5.21,9.44,6.66,8.67,2.17,18.59,6.51,18.59,27.65,0,18.96-9.82,35.17-26.69,35.17-13.06,0-25.64-9.41-25.64-24.9,0-7.67,3.72-14.18,8.67-14.18,2.48,0,4.67,1.3,6.96,3.91,1.81,2.03,3.53,4.63,8.2,4.63,3.72,0,4.96-1.74,4.96-4.92,0-3.62-3.62-4.34-8.48-5.94-9.72-3.18-19.44-6.8-19.44-28.66,0-18.38,7.82-33.15,25.35-33.15M337.03,134.7c-19.34,0-31.35,15-31.35,39.15,0,13.53,3.66,21.39,8.49,26.24-5.58,2.81-9.35,10.02-9.35,18.91s3.52,16.98,9.92,22.72c5.79,5.2,13.71,8.17,21.72,8.17,9.88,0,18.61-4.62,24.56-13,5.24-7.38,8.13-17.38,8.13-28.17,0-13.1-3.53-20.99-8.45-25.9,4.3-3.46,7.5-10.09,7.5-19.69,0-8.57-3.18-15.84-9.19-21.03-5.62-4.85-13.22-7.41-21.97-7.41h0Z"/>
    </g>
    <path class="cls-19" d="M192.17,24.26v-2.66S195.86,7.87,209.91.06c0,0-.83,2.28,0,4.84,0,0-13.43,5.41-17.74,19.36Z"/>
    <path class="cls-2" d="M202.32,25.3l2.68-2.84s7.92,7.33-3.59,13.92c0,0,6.69-7.28.91-11.08Z"/>
    <path class="cls-13" d="M198.9,38.88s5.26-.82,9.88-2.51,4.51-2.44,13.74-3.19c0,0-.43,3.55,3.44,5.69,0,0-6.87-2.79-11.7-1.94s-9.88,1.83-15.35,1.94Z"/>
    <path class="cls-19" d="M287.46,24.26v-2.66s-3.69-13.73-17.74-21.54c0,0,.83,2.28,0,4.84,0,0,13.43,5.41,17.74,19.36Z"/>
    <path class="cls-2" d="M277.31,25.3l-2.68-2.84s-7.92,7.33,3.59,13.92c0,0-6.69-7.28-.91-11.08Z"/>
    <path class="cls-13" d="M280.73,38.88s-5.26-.82-9.88-2.51-4.51-2.44-13.74-3.19c0,0,.43,3.55-3.44,5.69,0,0,6.87-2.79,11.7-1.94,4.83.86,9.88,1.83,15.35,1.94Z"/>
    <g>
      <path class="cls-12" d="M192.42,2.76c-.08-.27-.17-.53-.24-.81,0,0,.07.31.24.81Z"/>
      <path class="cls-12" d="M287.21,2.76c.18-.5.24-.81.24-.81-.07.28-.16.54-.24.81Z"/>
      <path class="cls-12" d="M276.82,13.08c-9.03,3.71-13.03,6.11-13.71,11.61l-12.58.13s2.25,1.6,2.42,5.17c-.09.97-.52,3.57-2.67,5.73-2.26,2.26-5.71,3.41-10.27,3.41-.07,0-.13,0-.2,0v.25s0-.25,0-.25c-4.65.04-8.17-1.11-10.46-3.41-2.15-2.16-2.58-4.76-2.67-5.73.17-3.57,2.42-5.17,2.42-5.17l-12.58-.13c-.68-5.5-4.68-7.9-13.71-11.61-7.23-2.97-9.7-8.31-10.4-10.33,2.54,8.4,10.29,11.72,10.29,11.72,7,2.77,9.29,6.6,10.04,8.82.29.84.31,2.03.35,4.34l.09,2.26,12.99.2c.1,1.08.56,3.72,2.8,5.97,2.36,2.37,5.93,3.56,10.63,3.56.06,0,.13,0,.2,0,.07,0,.13,0,.2,0,4.7,0,8.27-1.2,10.63-3.56,2.24-2.25,2.71-4.89,2.8-5.97l12.99-.2.09-2.26c.05-2.31.07-3.49.35-4.34.75-2.21,3.04-6.05,10.04-8.82,0,0,7.75-3.32,10.29-11.72-.7,2.02-3.17,7.36-10.4,10.33Z"/>
    </g>
    <path class="cls-1" d="M262.91,13.49c-1.07-1.54-6.65-8.26-23.07-8.91-.02,0-.03,0-.05,0-16.41.65-22,7.37-23.07,8.91-.12.18-.1.42.05.58l2.46,2.57h0s3.04,3.67,3.04,3.67c.09.11.22.17.36.17l14.21-.08h.24s.16,3.82.16,3.82c0,.22-.13.42-.35.47-1.61.37-5.48,1.69-4.4,5.66,1.36,4.97,7.33,4.88,7.33,4.88,0,0,5.96.09,7.33-4.88,1.09-3.96-2.78-5.28-4.4-5.66-.22-.05-.36-.25-.35-.47l.16-3.82h.24s14.21.08,14.21.08c.14,0,.27-.06.36-.17l3.04-3.67h0s2.46-2.58,2.46-2.58c.15-.16.18-.4.05-.58ZM256.98,19.98l-14.02-.08h0s-1.21,0-1.21,0l.32,4.66c2.07,1.69,3.43,3.43,1.97,4.74-1.46,1.32-4.23,1.04-4.23,1.04,0,0-2.77.27-4.23-1.04-1.46-1.32-.09-3.05,1.97-4.74l.32-4.66h-1.21s0,0,0,0l-14.02.08-2.82-3.4c8.25-6.68,19.99-6.35,19.99-6.35,0,0,11.74-.33,19.99,6.35l-2.82,3.4Z"/>
    <path class="cls-19" d="M287.46,24.26v-2.66s3.69-13.73,17.74-21.54c0,0-.83,2.28,0,4.84,0,0-13.43,5.41-17.74,19.36Z"/>
    <path class="cls-2" d="M297.61,25.3l2.68-2.84s7.92,7.33-3.59,13.92c0,0,6.69-7.28.91-11.08Z"/>
    <path class="cls-13" d="M294.19,38.88s5.26-.82,9.88-2.51,4.51-2.44,13.74-3.19c0,0-.43,3.55,3.44,5.69,0,0-6.87-2.79-11.7-1.94s-9.88,1.83-15.35,1.94Z"/>
    <path class="cls-19" d="M382.75,24.26v-2.66s-3.69-13.73-17.74-21.54c0,0,.83,2.28,0,4.84,0,0,13.43,5.41,17.74,19.36Z"/>
    <path class="cls-2" d="M372.6,25.3l-2.68-2.84s-7.92,7.33,3.59,13.92c0,0-6.69-7.28-.91-11.08Z"/>
    <path class="cls-13" d="M376.02,38.88s-5.26-.82-9.88-2.51-4.51-2.44-13.74-3.19c0,0,.43,3.55-3.44,5.69,0,0,6.87-2.79,11.7-1.94,4.83.86,9.88,1.83,15.35,1.94Z"/>
    <g>
      <path class="cls-12" d="M287.7,2.76c-.08-.27-.17-.53-.24-.81,0,0,.07.31.24.81Z"/>
      <path class="cls-12" d="M382.5,2.76c.18-.5.24-.81.24-.81-.07.28-.16.54-.24.81Z"/>
      <path class="cls-12" d="M372.1,13.08c-9.03,3.71-13.03,6.11-13.71,11.61l-12.58.13s2.25,1.6,2.42,5.17c-.09.97-.52,3.57-2.67,5.73-2.26,2.26-5.71,3.41-10.27,3.41-.07,0-.13,0-.2,0v.25s0-.25,0-.25c-4.65.04-8.17-1.11-10.46-3.41-2.15-2.16-2.58-4.76-2.67-5.73.17-3.57,2.42-5.17,2.42-5.17l-12.58-.13c-.68-5.5-4.68-7.9-13.71-11.61-7.23-2.97-9.7-8.31-10.4-10.33,2.54,8.4,10.29,11.72,10.29,11.72,7,2.77,9.29,6.6,10.04,8.82.29.84.31,2.03.35,4.34l.09,2.26,12.99.2c.1,1.08.56,3.72,2.8,5.97,2.36,2.37,5.93,3.56,10.63,3.56.06,0,.13,0,.2,0,.07,0,.13,0,.2,0,4.7,0,8.27-1.2,10.63-3.56,2.24-2.25,2.71-4.89,2.8-5.97l12.99-.2.09-2.26c.05-2.31.07-3.49.35-4.34.75-2.21,3.04-6.05,10.04-8.82,0,0,7.75-3.32,10.29-11.72-.7,2.02-3.17,7.36-10.4,10.33Z"/>
    </g>
    <path class="cls-1" d="M358.19,13.49c-1.07-1.54-6.65-8.26-23.07-8.91-.02,0-.03,0-.05,0-16.41.65-22,7.37-23.07,8.91-.12.18-.1.42.05.58l2.46,2.57h0s3.04,3.67,3.04,3.67c.09.11.22.17.36.17l14.21-.08h.24s.16,3.82.16,3.82c0,.22-.13.42-.35.47-1.61.37-5.48,1.69-4.4,5.66,1.36,4.97,7.33,4.88,7.33,4.88,0,0,5.96.09,7.33-4.88,1.09-3.96-2.78-5.28-4.4-5.66-.22-.05-.36-.25-.35-.47l.16-3.82h.24s14.21.08,14.21.08c.14,0,.27-.06.36-.17l3.04-3.67h0s2.46-2.58,2.46-2.58c.15-.16.18-.4.05-.58ZM352.27,19.98l-14.02-.08h0s-1.21,0-1.21,0l.32,4.66c2.07,1.69,3.43,3.43,1.97,4.74-1.46,1.32-4.23,1.04-4.23,1.04,0,0-2.77.27-4.23-1.04-1.46-1.32-.09-3.05,1.97-4.74l.32-4.66h-1.21s0,0,0,0l-14.02.08-2.82-3.4c8.25-6.68,19.99-6.35,19.99-6.35,0,0,11.74-.33,19.99,6.35l-2.82,3.4Z"/>
    <path class="cls-19" d="M382.75,24.26v-2.66s3.69-13.73,17.74-21.54c0,0-.83,2.28,0,4.84,0,0-13.43,5.41-17.74,19.36Z"/>
    <path class="cls-2" d="M392.89,25.3l2.68-2.84s7.92,7.33-3.59,13.92c0,0,6.69-7.28.91-11.08Z"/>
    <path class="cls-13" d="M389.47,38.88s5.26-.82,9.88-2.51,4.51-2.44,13.74-3.19c0,0-.43,3.55,3.44,5.69,0,0-6.87-2.79-11.7-1.94s-9.88,1.83-15.35,1.94Z"/>
    <path class="cls-19" d="M478.03,24.26v-2.66s-3.69-13.73-17.74-21.54c0,0,.83,2.28,0,4.84,0,0,13.43,5.41,17.74,19.36Z"/>
    <path class="cls-2" d="M467.88,25.3l-2.68-2.84s-7.92,7.33,3.59,13.92c0,0-6.69-7.28-.91-11.08Z"/>
    <path class="cls-13" d="M471.31,38.88s-5.26-.82-9.88-2.51-4.51-2.44-13.74-3.19c0,0,.43,3.55-3.44,5.69,0,0,6.87-2.79,11.7-1.94,4.83.86,9.88,1.83,15.35,1.94Z"/>
    <g>
      <path class="cls-12" d="M382.99,2.76c-.08-.27-.17-.53-.24-.81,0,0,.07.31.24.81Z"/>
      <path class="cls-12" d="M477.79,2.76c.18-.5.24-.81.24-.81-.07.28-.16.54-.24.81Z"/>
      <path class="cls-12" d="M467.39,13.08c-9.03,3.71-13.03,6.11-13.71,11.61l-12.58.13s2.25,1.6,2.42,5.17c-.09.97-.52,3.57-2.67,5.73-2.26,2.26-5.71,3.41-10.27,3.41-.07,0-.13,0-.2,0v.25s0-.25,0-.25c-4.65.04-8.17-1.11-10.46-3.41-2.15-2.16-2.58-4.76-2.67-5.73.17-3.57,2.42-5.17,2.42-5.17l-12.58-.13c-.68-5.5-4.68-7.9-13.71-11.61-7.23-2.97-9.7-8.31-10.4-10.33,2.54,8.4,10.29,11.72,10.29,11.72,7,2.77,9.29,6.6,10.04,8.82.29.84.31,2.03.35,4.34l.09,2.26,12.99.2c.1,1.08.56,3.72,2.8,5.97,2.36,2.37,5.93,3.56,10.63,3.56.06,0,.13,0,.2,0,.07,0,.13,0,.2,0,4.7,0,8.27-1.2,10.63-3.56,2.24-2.25,2.71-4.89,2.8-5.97l12.99-.2.09-2.26c.05-2.31.07-3.49.35-4.34.75-2.21,3.04-6.05,10.04-8.82,0,0,7.75-3.32,10.29-11.72-.7,2.02-3.17,7.36-10.4,10.33Z"/>
    </g>
    <path class="cls-1" d="M453.48,13.49c-1.07-1.54-6.65-8.26-23.07-8.91-.02,0-.03,0-.05,0-16.41.65-22,7.37-23.07,8.91-.12.18-.1.42.05.58l2.46,2.57h0s3.04,3.67,3.04,3.67c.09.11.22.17.36.17l14.21-.08h.24s.16,3.82.16,3.82c0,.22-.13.42-.35.47-1.61.37-5.48,1.69-4.4,5.66,1.36,4.97,7.33,4.88,7.33,4.88,0,0,5.96.09,7.33-4.88,1.09-3.96-2.78-5.28-4.4-5.66-.22-.05-.36-.25-.35-.47l.16-3.82h.24s14.21.08,14.21.08c.14,0,.27-.06.36-.17l3.04-3.67h0s2.46-2.58,2.46-2.58c.15-.16.18-.4.05-.58ZM447.55,19.98l-14.02-.08h0s-1.21,0-1.21,0l.32,4.66c2.07,1.69,3.43,3.43,1.97,4.74-1.46,1.32-4.23,1.04-4.23,1.04,0,0-2.77.27-4.23-1.04-1.46-1.32-.09-3.05,1.97-4.74l.32-4.66h-1.21s0,0,0,0l-14.02.08-2.82-3.4c8.25-6.68,19.99-6.35,19.99-6.35,0,0,11.74-.33,19.99,6.35l-2.82,3.4Z"/>
    <path class="cls-19" d="M478.03,24.26v-2.66s3.69-13.73,17.74-21.54c0,0-.83,2.28,0,4.84,0,0-13.43,5.41-17.74,19.36Z"/>
    <path class="cls-2" d="M488.18,25.3l2.68-2.84s7.92,7.33-3.59,13.92c0,0,6.69-7.28.91-11.08Z"/>
    <path class="cls-13" d="M484.76,38.88s5.26-.82,9.88-2.51,4.51-2.44,13.74-3.19c0,0-.43,3.55,3.44,5.69,0,0-6.87-2.79-11.7-1.94s-9.88,1.83-15.35,1.94Z"/>
    <path class="cls-19" d="M573.32,24.26v-2.66s-3.69-13.73-17.74-21.54c0,0,.83,2.28,0,4.84,0,0,13.43,5.41,17.74,19.36Z"/>
    <path class="cls-2" d="M563.17,25.3l-2.68-2.84s-7.92,7.33,3.59,13.92c0,0-6.69-7.28-.91-11.08Z"/>
    <path class="cls-13" d="M566.59,38.88s-5.26-.82-9.88-2.51-4.51-2.44-13.74-3.19c0,0,.43,3.55-3.44,5.69,0,0,6.87-2.79,11.7-1.94,4.83.86,9.88,1.83,15.35,1.94Z"/>
    <g>
      <path class="cls-12" d="M478.28,2.76c-.08-.27-.17-.53-.24-.81,0,0,.07.31.24.81Z"/>
      <path class="cls-12" d="M573.07,2.76c.18-.5.24-.81.24-.81-.07.28-.16.54-.24.81Z"/>
      <path class="cls-12" d="M562.68,13.08c-9.03,3.71-13.03,6.11-13.71,11.61l-12.58.13s2.25,1.6,2.42,5.17c-.09.97-.52,3.57-2.67,5.73-2.26,2.26-5.71,3.41-10.27,3.41-.07,0-.13,0-.2,0v.25s0-.25,0-.25c-4.65.04-8.17-1.11-10.46-3.41-2.15-2.16-2.58-4.76-2.67-5.73.17-3.57,2.42-5.17,2.42-5.17l-12.58-.13c-.68-5.5-4.68-7.9-13.71-11.61-7.23-2.97-9.7-8.31-10.4-10.33,2.54,8.4,10.29,11.72,10.29,11.72,7,2.77,9.29,6.6,10.04,8.82.29.84.31,2.03.35,4.34l.09,2.26,12.99.2c.1,1.08.56,3.72,2.8,5.97,2.36,2.37,5.93,3.56,10.63,3.56.06,0,.13,0,.2,0,.07,0,.13,0,.2,0,4.7,0,8.27-1.2,10.63-3.56,2.24-2.25,2.71-4.89,2.8-5.97l12.99-.2.09-2.26c.05-2.31.07-3.49.35-4.34.75-2.21,3.04-6.05,10.04-8.82,0,0,7.75-3.32,10.29-11.72-.7,2.02-3.17,7.36-10.4,10.33Z"/>
    </g>
    <path class="cls-1" d="M548.76,13.49c-1.07-1.54-6.65-8.26-23.07-8.91-.02,0-.03,0-.05,0-16.41.65-22,7.37-23.07,8.91-.12.18-.1.42.05.58l2.46,2.57h0s3.04,3.67,3.04,3.67c.09.11.22.17.36.17l14.21-.08h.24s.16,3.82.16,3.82c0,.22-.13.42-.35.47-1.61.37-5.48,1.69-4.4,5.66,1.36,4.97,7.33,4.88,7.33,4.88,0,0,5.96.09,7.33-4.88,1.09-3.96-2.78-5.28-4.4-5.66-.22-.05-.36-.25-.35-.47l.16-3.82h.24s14.21.08,14.21.08c.14,0,.27-.06.36-.17l3.04-3.67h0s2.46-2.58,2.46-2.58c.15-.16.18-.4.05-.58ZM542.84,19.98l-14.02-.08h0s-1.21,0-1.21,0l.32,4.66c2.07,1.69,3.43,3.43,1.97,4.74-1.46,1.32-4.23,1.04-4.23,1.04,0,0-2.77.27-4.23-1.04-1.46-1.32-.09-3.05,1.97-4.74l.32-4.66h-1.21s0,0,0,0l-14.02.08-2.82-3.4c8.25-6.68,19.99-6.35,19.99-6.35,0,0,11.74-.33,19.99,6.35l-2.82,3.4Z"/>
    <polygon class="cls-1" points="635.99 45.85 638.84 42.81 643.39 42.84 643.2 55.43 651.31 59.69 648.1 56.57 643.81 55.28 643.93 42.43 638.45 42.43 635.99 45.85"/>
    <path class="cls-17" d="M632.34,50.61s-11.54.16-11.49-10.28"/>
    <path class="cls-12" d="M573.69,2.62s1.61,7.42,10.64,11.14,13.03,6.11,13.71,11.61l12.58.13s-2.31,1.63-2.44,5.28l-13.48-.21-.09-2.26c-.05-2.31-.07-3.49-.35-4.34-.75-2.21-3.04-6.05-10.04-8.82,0,0-8.27-3.52-10.53-12.53Z"/>
    <path class="cls-18" d="M607.93,30.27s-.11,9.88,13.41,9.78"/>
    <path class="cls-19" d="M668.39,1.47s-3.44,2.24-10.13,1.23c0,0,0,6.48-6.28,10.74,0,0-.47-.07,0-1.37s2.94-4.38,3.74-8.7c0,0-.8,1.17-2.65,1.05s-2.47-1.11-2.47-1.11c0,0,1.6,10.67-4.44,14.74,0,0,4.13-12.03-.49-15.48,0,0-2.53.74-6.72-.99,0,0,9.99,5.74,2.59,21.47,0,0,17.27-6.79,26.22,2.71,0,0-1.91-5.68-1.08-5.99,0,0-3.53-3.7-18.66-.04,0,0,1.98-5.51,17.82-3.66,0,0-1.28-2.21.04-4.01,0,0-4.81-.31-11.95,2.78,0,0-.62-.31.04-1.01s4.81-4.5,12.66-3.88c0,0-.85-6.12,1.76-8.47Z"/>
    <path class="cls-1" d="M600.95,17.02l-3.81-2.46s8.12-9.11,23.82-9.08c15.7.04,14.73,10.24,14.73,10.24,0,0-.26,9.58-11.8,10.04l.13-1.48s12.45-1.04,9.08-9.85c-1.67-4.37-24.44-6.92-32.15,2.59Z"/>
    <path class="cls-19" d="M573.32,24.2v-2.66S577,7.82,591.05,0c0,0-.83,2.28,0,4.84,0,0-13.43,5.41-17.74,19.36Z"/>
    <polygon class="cls-1" points="614.02 27.25 617.73 24.84 617.7 21 602.34 21.16 597.14 14.56 600.95 17.02 602.51 20.64 618.2 20.54 618.2 25.17 614.02 27.25"/>
    <path class="cls-2" d="M583.03,26.04l2.68-2.84s7.92,7.33-3.59,13.92c0,0,6.69-7.28.91-11.08Z"/>
    <path class="cls-13" d="M579.61,39.62s5.26-.82,9.88-2.51,4.51-2.44,13.74-3.19c0,0-.43,3.55,3.44,5.69,0,0-6.87-2.79-11.7-1.94s-9.88,1.83-15.35,1.94Z"/>
    <polygon class="cls-1" points="624.02 24.28 623.22 24.59 623.22 31.52 624.37 31.13 624.63 24.28 624.02 24.28"/>
    <path class="cls-1" d="M648.11,56.57l3.2,3.12s11.83-6.65,11.78-19.53c-.05-12.87-13.29-12.08-13.29-12.08,0,0-12.43.21-13.03,9.67l1.92-.11s1.35-10.2,12.79-7.44c5.67,1.37,8.98,20.03-3.36,26.35Z"/>
    <polygon class="cls-1" points="638.69 37.57 638.36 38.23 630.91 38.23 631.32 37.29 638.69 37.07 638.69 37.57"/>
    <path class="cls-12" d="M664.8,76.84s-8.68-1.19-13.06-8.14c-4.38-6.95-7.2-10.02-13.62-10.5l-.21-9.71s-1.89,1.79-6.16,1.92l.31,10.4,2.64.05c2.69.02,4.08.03,5.07.24,2.59.56,7.08,2.31,10.34,7.69,0,0,4.16,6.36,14.69,8.04Z"/>
    <path class="cls-13" d="M621.33,73.7s1.01-4.29,3.07-8.06,2.98-3.68,3.9-11.22c0,0-4.35.35-6.97-2.8,0,0,3.42,5.61,2.37,9.55s-2.24,8.06-2.37,12.53Z"/>
    <path class="cls-2" d="M638.17,70.37l3.58-1.97s-10.01-6.16-17.85,4.08c0,0,9.22-7.07,14.27-2.12Z"/>
    <path class="cls-19" d="M639.51,78.7h3.16s16.32-2.88,25.61-13.87c0,0-2.71.65-5.75,0,0,0-6.43,10.5-23.01,13.87Z"/>
    <path class="cls-19" d="M572.76,289.67v2.66s-3.69,13.73-17.74,21.54c0,0,.83-2.28,0-4.84,0,0,13.43-5.41,17.74-19.36Z"/>
    <path class="cls-2" d="M562.62,288.64l-2.68,2.84s-7.92-7.33,3.59-13.92c0,0-6.69,7.28-.91,11.08Z"/>
    <path class="cls-13" d="M566.04,275.05s-5.26.82-9.88,2.51-4.51,2.44-13.74,3.19c0,0,.43-3.55-3.44-5.69,0,0,6.87,2.79,11.7,1.94s9.88-1.83,15.35-1.94Z"/>
    <path class="cls-19" d="M477.48,289.67v2.66s3.69,13.73,17.74,21.54c0,0-.83-2.28,0-4.84,0,0-13.43-5.41-17.74-19.36Z"/>
    <path class="cls-2" d="M487.63,288.64l2.68,2.84s7.92-7.33-3.59-13.92c0,0,6.69,7.28.91,11.08Z"/>
    <path class="cls-13" d="M484.2,275.05s5.26.82,9.88,2.51c4.62,1.68,4.51,2.44,13.74,3.19,0,0-.43-3.55,3.44-5.69,0,0-6.87,2.79-11.7,1.94s-9.88-1.83-15.35-1.94Z"/>
    <g>
      <path class="cls-12" d="M572.52,311.17c.08.27.17.53.24.81,0,0-.07-.31-.24-.81Z"/>
      <path class="cls-12" d="M477.72,311.17c-.18.5-.24.81-.24.81.07-.28.16-.54.24-.81Z"/>
      <path class="cls-12" d="M488.12,300.85c9.03-3.71,13.03-6.11,13.71-11.61l12.58-.13s-2.25-1.6-2.42-5.17c.09-.97.52-3.57,2.67-5.73,2.26-2.26,5.71-3.41,10.27-3.41.07,0,.13,0,.2,0v-.25s0,.25,0,.25c4.65-.04,8.17,1.11,10.46,3.41,2.15,2.16,2.58,4.76,2.67,5.73-.17,3.57-2.42,5.17-2.42,5.17l12.58.13c.68,5.5,4.68,7.9,13.71,11.61,7.23,2.97,9.7,8.31,10.4,10.33-2.54-8.4-10.29-11.72-10.29-11.72-7-2.77-9.29-6.6-10.04-8.82-.29-.84-.31-2.03-.35-4.34l-.09-2.26-12.99-.2c-.1-1.08-.56-3.72-2.8-5.97-2.36-2.37-5.93-3.56-10.63-3.56-.06,0-.13,0-.2,0-.07,0-.13,0-.2,0-4.7,0-8.27,1.2-10.63,3.56-2.24,2.25-2.71,4.89-2.8,5.97l-12.99.2-.09,2.26c-.05,2.31-.07,3.49-.35,4.34-.75,2.21-3.04,6.05-10.04,8.82,0,0-7.75,3.32-10.29,11.72.7-2.02,3.17-7.36,10.4-10.33Z"/>
    </g>
    <path class="cls-1" d="M502.03,300.45c1.07,1.54,6.65,8.26,23.07,8.91.02,0,.03,0,.05,0,16.41-.65,22-7.37,23.07-8.91.12-.18.1-.42-.05-.58l-2.46-2.57h0s-3.04-3.67-3.04-3.67c-.09-.11-.22-.17-.36-.17l-14.21.08h-.24s-.16-3.82-.16-3.82c0-.22.13-.42.35-.47,1.61-.37,5.48-1.69,4.4-5.66-1.36-4.97-7.33-4.88-7.33-4.88,0,0-5.96-.09-7.33,4.88-1.09,3.96,2.78,5.28,4.4,5.66.22.05.36.25.35.47l-.16,3.82h-.24s-14.21-.08-14.21-.08c-.14,0-.27.06-.36.17l-3.04,3.67h0s-2.46,2.58-2.46,2.58c-.15.16-.18.4-.05.58ZM507.96,293.96l14.02.08h0s1.21,0,1.21,0l-.32-4.66c-2.07-1.69-3.43-3.43-1.97-4.74,1.46-1.32,4.23-1.04,4.23-1.04,0,0,2.77-.27,4.23,1.04,1.46,1.32.09,3.05-1.97,4.74l-.32,4.66h1.21s0,0,0,0l14.02-.08,2.82,3.4c-8.25,6.68-19.99,6.35-19.99,6.35,0,0-11.74.33-19.99-6.35l2.82-3.4Z"/>
    <polygon class="cls-1" points="635.43 268.05 638.29 271.09 642.83 271.07 642.64 258.48 650.75 254.22 647.55 257.34 643.26 258.62 643.38 271.48 637.89 271.48 635.43 268.05"/>
    <path class="cls-17" d="M631.79,263.29s-11.54-.16-11.49,10.28"/>
    <path class="cls-12" d="M573.14,311.28s1.61-7.42,10.64-11.14,13.03-6.11,13.71-11.61l12.58-.13s-2.31-1.63-2.44-5.28l-13.48.21-.09,2.26c-.05,2.31-.07,3.49-.35,4.34-.75,2.21-3.04,6.05-10.04,8.82,0,0-8.27,3.52-10.53,12.53Z"/>
    <path class="cls-18" d="M607.37,283.64s-.11-9.88,13.41-9.78"/>
    <path class="cls-19" d="M667.84,312.43s-3.44-2.24-10.13-1.23c0,0,0-6.48-6.28-10.74,0,0-.47.07,0,1.37s2.94,4.38,3.74,8.7c0,0-.8-1.17-2.65-1.05s-2.47,1.11-2.47,1.11c0,0,1.6-10.67-4.44-14.74,0,0,4.13,12.03-.49,15.48,0,0-2.53-.74-6.72.99,0,0,9.99-5.74,2.59-21.47,0,0,17.27,6.79,26.22-2.71,0,0-1.91,5.68-1.08,5.99,0,0-3.53,3.7-18.66.04,0,0,1.98,5.51,17.82,3.66,0,0-1.28,2.21.04,4.01,0,0-4.81.31-11.95-2.78,0,0-.62.31.04,1.01s4.81,4.5,12.66,3.88c0,0-.85,6.12,1.76,8.47Z"/>
    <path class="cls-1" d="M600.39,296.88l-3.81,2.46s8.12,9.11,23.82,9.08,14.73-10.24,14.73-10.24c0,0-.26-9.58-11.8-10.04l.13,1.48s12.45,1.04,9.08,9.85c-1.67,4.37-24.44,6.92-32.15-2.59Z"/>
    <path class="cls-19" d="M572.76,289.7v2.66s3.69,13.73,17.74,21.54c0,0-.83-2.28,0-4.84,0,0-13.43-5.41-17.74-19.36Z"/>
    <polygon class="cls-1" points="613.47 286.66 617.18 289.06 617.14 292.9 601.78 292.74 596.59 299.34 600.39 296.88 601.96 293.26 617.64 293.36 617.64 288.73 613.47 286.66"/>
    <path class="cls-2" d="M582.48,287.86l2.68,2.84s7.92-7.33-3.59-13.92c0,0,6.69,7.28.91,11.08Z"/>
    <path class="cls-13" d="M579.06,274.28s5.26.82,9.88,2.51,4.51,2.44,13.74,3.19c0,0-.43-3.55,3.44-5.69,0,0-6.87,2.79-11.7,1.94s-9.88-1.83-15.35-1.94Z"/>
    <polygon class="cls-1" points="623.47 289.62 622.66 289.31 622.66 282.39 623.82 282.77 624.07 289.62 623.47 289.62"/>
    <path class="cls-1" d="M647.56,257.34l3.2-3.12s11.83,6.65,11.78,19.53c-.05,12.87-13.29,12.08-13.29,12.08,0,0-12.43-.21-13.03-9.67l1.92.11s1.35,10.2,12.79,7.44c5.67-1.37,8.98-20.03-3.36-26.35Z"/>
    <polygon class="cls-1" points="638.14 276.33 637.8 275.67 630.35 275.67 630.77 276.62 638.14 276.83 638.14 276.33"/>
    <path class="cls-12" d="M664.24,237.06s-8.68,1.19-13.06,8.14c-4.38,6.95-7.2,10.02-13.62,10.5l-.21,9.71s-1.89-1.79-6.16-1.92l.31-10.4,2.64-.05c2.69-.02,4.08-.03,5.07-.24,2.59-.56,7.08-2.31,10.34-7.69,0,0,4.16-6.36,14.69-8.04Z"/>
    <path class="cls-13" d="M620.78,240.21s1.01,4.29,3.07,8.06,2.98,3.68,3.9,11.22c0,0-4.35-.35-6.97,2.8,0,0,3.42-5.61,2.37-9.55-1.05-3.94-2.24-8.06-2.37-12.53Z"/>
    <path class="cls-2" d="M637.62,243.54l3.58,1.97s-10.01,6.16-17.85-4.08c0,0,9.22,7.07,14.27,2.12Z"/>
    <path class="cls-19" d="M638.96,235.21h3.16s16.32,2.88,25.61,13.87c0,0-2.71-.65-5.75,0,0,0-6.43-10.5-23.01-13.87Z"/>
    <path class="cls-19" d="M477.48,289.67v2.66s-3.69,13.73-17.74,21.54c0,0,.83-2.28,0-4.84,0,0,13.43-5.41,17.74-19.36Z"/>
    <path class="cls-2" d="M467.33,288.64l-2.68,2.84s-7.92-7.33,3.59-13.92c0,0-6.69,7.28-.91,11.08Z"/>
    <path class="cls-13" d="M470.75,275.05s-5.26.82-9.88,2.51-4.51,2.44-13.74,3.19c0,0,.43-3.55-3.44-5.69,0,0,6.87,2.79,11.7,1.94s9.88-1.83,15.35-1.94Z"/>
    <path class="cls-19" d="M382.19,289.67v2.66s3.69,13.73,17.74,21.54c0,0-.83-2.28,0-4.84,0,0-13.43-5.41-17.74-19.36Z"/>
    <path class="cls-2" d="M392.34,288.64l2.68,2.84s7.92-7.33-3.59-13.92c0,0,6.69,7.28.91,11.08Z"/>
    <path class="cls-13" d="M388.92,275.05s5.26.82,9.88,2.51c4.62,1.68,4.51,2.44,13.74,3.19,0,0-.43-3.55,3.44-5.69,0,0-6.87,2.79-11.7,1.94s-9.88-1.83-15.35-1.94Z"/>
    <g>
      <path class="cls-12" d="M477.23,311.17c.08.27.17.53.24.81,0,0-.07-.31-.24-.81Z"/>
      <path class="cls-12" d="M382.44,311.17c-.18.5-.24.81-.24.81.07-.28.16-.54.24-.81Z"/>
      <path class="cls-12" d="M392.83,300.85c9.03-3.71,13.03-6.11,13.71-11.61l12.58-.13s-2.25-1.6-2.42-5.17c.09-.97.52-3.57,2.67-5.73,2.26-2.26,5.71-3.41,10.27-3.41.07,0,.13,0,.2,0v-.25s0,.25,0,.25c4.65-.04,8.17,1.11,10.46,3.41,2.15,2.16,2.58,4.76,2.67,5.73-.17,3.57-2.42,5.17-2.42,5.17l12.58.13c.68,5.5,4.68,7.9,13.71,11.61,7.23,2.97,9.7,8.31,10.4,10.33-2.54-8.4-10.29-11.72-10.29-11.72-7-2.77-9.29-6.6-10.04-8.82-.29-.84-.31-2.03-.35-4.34l-.09-2.26-12.99-.2c-.1-1.08-.56-3.72-2.8-5.97-2.36-2.37-5.93-3.56-10.63-3.56-.06,0-.13,0-.2,0-.07,0-.13,0-.2,0-4.7,0-8.27,1.2-10.63,3.56-2.24,2.25-2.71,4.89-2.8,5.97l-12.99.2-.09,2.26c-.05,2.31-.07,3.49-.35,4.34-.75,2.21-3.04,6.05-10.04,8.82,0,0-7.75,3.32-10.29,11.72.7-2.02,3.17-7.36,10.4-10.33Z"/>
    </g>
    <path class="cls-1" d="M406.74,300.45c1.07,1.54,6.65,8.26,23.07,8.91.02,0,.03,0,.05,0,16.41-.65,22-7.37,23.07-8.91.12-.18.1-.42-.05-.58l-2.46-2.57h0s-3.04-3.67-3.04-3.67c-.09-.11-.22-.17-.36-.17l-14.21.08h-.24s-.16-3.82-.16-3.82c0-.22.13-.42.35-.47,1.61-.37,5.48-1.69,4.4-5.66-1.36-4.97-7.33-4.88-7.33-4.88,0,0-5.96-.09-7.33,4.88-1.09,3.96,2.78,5.28,4.4,5.66.22.05.36.25.35.47l-.16,3.82h-.24s-14.21-.08-14.21-.08c-.14,0-.27.06-.36.17l-3.04,3.67h0s-2.46,2.58-2.46,2.58c-.15.16-.18.4-.05.58ZM412.67,293.96l14.02.08h0s1.21,0,1.21,0l-.32-4.66c-2.07-1.69-3.43-3.43-1.97-4.74,1.46-1.32,4.23-1.04,4.23-1.04,0,0,2.77-.27,4.23,1.04,1.46,1.32.09,3.05-1.97,4.74l-.32,4.66h1.21s0,0,0,0l14.02-.08,2.82,3.4c-8.25,6.68-19.99,6.35-19.99,6.35,0,0-11.74.33-19.99-6.35l2.82-3.4Z"/>
    <path class="cls-19" d="M382.19,289.67v2.66s-3.69,13.73-17.74,21.54c0,0,.83-2.28,0-4.84,0,0,13.43-5.41,17.74-19.36Z"/>
    <path class="cls-2" d="M372.04,288.64l-2.68,2.84s-7.92-7.33,3.59-13.92c0,0-6.69,7.28-.91,11.08Z"/>
    <path class="cls-13" d="M375.47,275.05s-5.26.82-9.88,2.51-4.51,2.44-13.74,3.19c0,0,.43-3.55-3.44-5.69,0,0,6.87,2.79,11.7,1.94s9.88-1.83,15.35-1.94Z"/>
    <path class="cls-19" d="M286.91,289.67v2.66s3.69,13.73,17.74,21.54c0,0-.83-2.28,0-4.84,0,0-13.43-5.41-17.74-19.36Z"/>
    <path class="cls-2" d="M297.05,288.64l2.68,2.84s7.92-7.33-3.59-13.92c0,0,6.69,7.28.91,11.08Z"/>
    <path class="cls-13" d="M293.63,275.05s5.26.82,9.88,2.51c4.62,1.68,4.51,2.44,13.74,3.19,0,0-.43-3.55,3.44-5.69,0,0-6.87,2.79-11.7,1.94-4.83-.86-9.88-1.83-15.35-1.94Z"/>
    <g>
      <path class="cls-12" d="M381.95,311.17c.08.27.17.53.24.81,0,0-.07-.31-.24-.81Z"/>
      <path class="cls-12" d="M287.15,311.17c-.18.5-.24.81-.24.81.07-.28.16-.54.24-.81Z"/>
      <path class="cls-12" d="M297.55,300.85c9.03-3.71,13.03-6.11,13.71-11.61l12.58-.13s-2.25-1.6-2.42-5.17c.09-.97.52-3.57,2.67-5.73,2.26-2.26,5.71-3.41,10.27-3.41.07,0,.13,0,.2,0v-.25s0,.25,0,.25c4.65-.04,8.17,1.11,10.46,3.41,2.15,2.16,2.58,4.76,2.67,5.73-.17,3.57-2.42,5.17-2.42,5.17l12.58.13c.68,5.5,4.68,7.9,13.71,11.61,7.23,2.97,9.7,8.31,10.4,10.33-2.54-8.4-10.29-11.72-10.29-11.72-7-2.77-9.29-6.6-10.04-8.82-.29-.84-.31-2.03-.35-4.34l-.09-2.26-12.99-.2c-.1-1.08-.56-3.72-2.8-5.97-2.36-2.37-5.93-3.56-10.63-3.56-.06,0-.13,0-.2,0-.07,0-.13,0-.2,0-4.7,0-8.27,1.2-10.63,3.56-2.24,2.25-2.71,4.89-2.8,5.97l-12.99.2-.09,2.26c-.05,2.31-.07,3.49-.35,4.34-.75,2.21-3.04,6.05-10.04,8.82,0,0-7.75,3.32-10.29,11.72.7-2.02,3.17-7.36,10.4-10.33Z"/>
    </g>
    <path class="cls-1" d="M311.46,300.45c1.07,1.54,6.65,8.26,23.07,8.91.02,0,.03,0,.05,0,16.41-.65,22-7.37,23.07-8.91.12-.18.1-.42-.05-.58l-2.46-2.57h0s-3.04-3.67-3.04-3.67c-.09-.11-.22-.17-.36-.17l-14.21.08h-.24s-.16-3.82-.16-3.82c0-.22.13-.42.35-.47,1.61-.37,5.48-1.69,4.4-5.66-1.36-4.97-7.33-4.88-7.33-4.88,0,0-5.96-.09-7.33,4.88-1.09,3.96,2.78,5.28,4.4,5.66.22.05.36.25.35.47l-.16,3.82h-.24s-14.21-.08-14.21-.08c-.14,0-.27.06-.36.17l-3.04,3.67h0s-2.46,2.58-2.46,2.58c-.15.16-.18.4-.05.58ZM317.38,293.96l14.02.08h0s1.21,0,1.21,0l-.32-4.66c-2.07-1.69-3.43-3.43-1.97-4.74,1.46-1.32,4.23-1.04,4.23-1.04,0,0,2.77-.27,4.23,1.04,1.46,1.32.09,3.05-1.97,4.74l-.32,4.66h1.21s0,0,0,0l14.02-.08,2.82,3.4c-8.25,6.68-19.99,6.35-19.99,6.35,0,0-11.74.33-19.99-6.35l2.82-3.4Z"/>
    <path class="cls-19" d="M286.91,289.67v2.66s-3.69,13.73-17.74,21.54c0,0,.83-2.28,0-4.84,0,0,13.43-5.41,17.74-19.36Z"/>
    <path class="cls-2" d="M276.76,288.64l-2.68,2.84s-7.92-7.33,3.59-13.92c0,0-6.69,7.28-.91,11.08Z"/>
    <path class="cls-13" d="M280.18,275.05s-5.26.82-9.88,2.51-4.51,2.44-13.74,3.19c0,0,.43-3.55-3.44-5.69,0,0,6.87,2.79,11.7,1.94s9.88-1.83,15.35-1.94Z"/>
    <path class="cls-19" d="M191.62,289.67v2.66s3.69,13.73,17.74,21.54c0,0-.83-2.28,0-4.84,0,0-13.43-5.41-17.74-19.36Z"/>
    <path class="cls-2" d="M201.77,288.64l2.68,2.84s7.92-7.33-3.59-13.92c0,0,6.69,7.28.91,11.08Z"/>
    <path class="cls-13" d="M198.35,275.05s5.26.82,9.88,2.51c4.62,1.68,4.51,2.44,13.74,3.19,0,0-.43-3.55,3.44-5.69,0,0-6.87,2.79-11.7,1.94-4.83-.86-9.88-1.83-15.35-1.94Z"/>
    <g>
      <path class="cls-12" d="M286.66,311.17c.08.27.17.53.24.81,0,0-.07-.31-.24-.81Z"/>
      <path class="cls-12" d="M191.87,311.17c-.18.5-.24.81-.24.81.07-.28.16-.54.24-.81Z"/>
      <path class="cls-12" d="M202.26,300.85c9.03-3.71,13.03-6.11,13.71-11.61l12.58-.13s-2.25-1.6-2.42-5.17c.09-.97.52-3.57,2.67-5.73,2.26-2.26,5.71-3.41,10.27-3.41.07,0,.13,0,.2,0v-.25s0,.25,0,.25c4.65-.04,8.17,1.11,10.46,3.41,2.15,2.16,2.58,4.76,2.67,5.73-.17,3.57-2.42,5.17-2.42,5.17l12.58.13c.68,5.5,4.68,7.9,13.71,11.61,7.23,2.97,9.7,8.31,10.4,10.33-2.54-8.4-10.29-11.72-10.29-11.72-7-2.77-9.29-6.6-10.04-8.82-.29-.84-.31-2.03-.35-4.34l-.09-2.26-12.99-.2c-.1-1.08-.56-3.72-2.8-5.97-2.36-2.37-5.93-3.56-10.63-3.56-.06,0-.13,0-.2,0-.07,0-.13,0-.2,0-4.7,0-8.27,1.2-10.63,3.56-2.24,2.25-2.71,4.89-2.8,5.97l-12.99.2-.09,2.26c-.05,2.31-.07,3.49-.35,4.34-.75,2.21-3.04,6.05-10.04,8.82,0,0-7.75,3.32-10.29,11.72.7-2.02,3.17-7.36,10.4-10.33Z"/>
    </g>
    <path class="cls-1" d="M216.17,300.45c1.07,1.54,6.65,8.26,23.07,8.91.02,0,.03,0,.05,0,16.41-.65,22-7.37,23.07-8.91.12-.18.1-.42-.05-.58l-2.46-2.57h0s-3.04-3.67-3.04-3.67c-.09-.11-.22-.17-.36-.17l-14.21.08h-.24s-.16-3.82-.16-3.82c0-.22.13-.42.35-.47,1.61-.37,5.48-1.69,4.4-5.66-1.36-4.97-7.33-4.88-7.33-4.88,0,0-5.96-.09-7.33,4.88-1.09,3.96,2.78,5.28,4.4,5.66.22.05.36.25.35.47l-.16,3.82h-.24s-14.21-.08-14.21-.08c-.14,0-.27.06-.36.17l-3.04,3.67h0s-2.46,2.58-2.46,2.58c-.15.16-.18.4-.05.58ZM222.1,293.96l14.02.08h0s1.21,0,1.21,0l-.32-4.66c-2.07-1.69-3.43-3.43-1.97-4.74,1.46-1.32,4.23-1.04,4.23-1.04,0,0,2.77-.27,4.23,1.04,1.46,1.32.09,3.05-1.97,4.74l-.32,4.66h1.21s0,0,0,0l14.02-.08,2.82,3.4c-8.25,6.68-19.99,6.35-19.99,6.35,0,0-11.74.33-19.99-6.35l2.82-3.4Z"/>
    <path class="cls-19" d="M191.62,289.67v2.66s-3.69,13.73-17.74,21.54c0,0,.83-2.28,0-4.84,0,0,13.43-5.41,17.74-19.36Z"/>
    <path class="cls-2" d="M181.47,288.64l-2.68,2.84s-7.92-7.33,3.59-13.92c0,0-6.69,7.28-.91,11.08Z"/>
    <path class="cls-13" d="M184.9,275.05s-5.26.82-9.88,2.51-4.51,2.44-13.74,3.19c0,0,.43-3.55-3.44-5.69,0,0,6.87,2.79,11.7,1.94s9.88-1.83,15.35-1.94Z"/>
    <path class="cls-19" d="M96.33,289.67v2.66s3.69,13.73,17.74,21.54c0,0-.83-2.28,0-4.84,0,0-13.43-5.41-17.74-19.36Z"/>
    <path class="cls-2" d="M106.48,288.64l2.68,2.84s7.92-7.33-3.59-13.92c0,0,6.69,7.28.91,11.08Z"/>
    <path class="cls-13" d="M103.06,275.05s5.26.82,9.88,2.51c4.62,1.68,4.51,2.44,13.74,3.19,0,0-.43-3.55,3.44-5.69,0,0-6.87,2.79-11.7,1.94s-9.88-1.83-15.35-1.94Z"/>
    <g>
      <path class="cls-12" d="M191.38,311.17c.08.27.17.53.24.81,0,0-.07-.31-.24-.81Z"/>
      <path class="cls-12" d="M96.58,311.17c-.18.5-.24.81-.24.81.07-.28.16-.54.24-.81Z"/>
      <path class="cls-12" d="M106.98,300.85c9.03-3.71,13.03-6.11,13.71-11.61l12.58-.13s-2.25-1.6-2.42-5.17c.09-.97.52-3.57,2.67-5.73,2.26-2.26,5.71-3.41,10.27-3.41.07,0,.13,0,.2,0v-.25s0,.25,0,.25c4.65-.04,8.17,1.11,10.46,3.41,2.15,2.16,2.58,4.76,2.67,5.73-.17,3.57-2.42,5.17-2.42,5.17l12.58.13c.68,5.5,4.68,7.9,13.71,11.61,7.23,2.97,9.7,8.31,10.4,10.33-2.54-8.4-10.29-11.72-10.29-11.72-7-2.77-9.29-6.6-10.04-8.82-.29-.84-.31-2.03-.35-4.34l-.09-2.26-12.99-.2c-.1-1.08-.56-3.72-2.8-5.97-2.36-2.37-5.93-3.56-10.63-3.56-.06,0-.13,0-.2,0-.07,0-.13,0-.2,0-4.7,0-8.27,1.2-10.63,3.56-2.24,2.25-2.71,4.89-2.8,5.97l-12.99.2-.09,2.26c-.05,2.31-.07,3.49-.35,4.34-.75,2.21-3.04,6.05-10.04,8.82,0,0-7.75,3.32-10.29,11.72.7-2.02,3.17-7.36,10.4-10.33Z"/>
    </g>
    <path class="cls-1" d="M120.89,300.45c1.07,1.54,6.65,8.26,23.07,8.91.02,0,.03,0,.05,0,16.41-.65,22-7.37,23.07-8.91.12-.18.1-.42-.05-.58l-2.46-2.57h0s-3.04-3.67-3.04-3.67c-.09-.11-.22-.17-.36-.17l-14.21.08h-.24s-.16-3.82-.16-3.82c0-.22.13-.42.35-.47,1.61-.37,5.48-1.69,4.4-5.66-1.36-4.97-7.33-4.88-7.33-4.88,0,0-5.96-.09-7.33,4.88-1.09,3.96,2.78,5.28,4.4,5.66.22.05.36.25.35.47l-.16,3.82h-.24s-14.21-.08-14.21-.08c-.14,0-.27.06-.36.17l-3.04,3.67h0s-2.46,2.58-2.46,2.58c-.15.16-.18.4-.05.58ZM126.81,293.96l14.02.08h0s1.21,0,1.21,0l-.32-4.66c-2.07-1.69-3.43-3.43-1.97-4.74,1.46-1.32,4.23-1.04,4.23-1.04,0,0,2.77-.27,4.23,1.04,1.46,1.32.09,3.05-1.97,4.74l-.32,4.66h1.21s0,0,0,0l14.02-.08,2.82,3.4c-8.25,6.68-19.99,6.35-19.99,6.35,0,0-11.74.33-19.99-6.35l2.82-3.4Z"/>
    <polygon class="cls-1" points="33.66 268.08 30.81 271.12 26.26 271.09 26.46 258.51 18.35 254.24 21.55 257.37 25.84 258.65 25.72 271.5 31.21 271.5 33.66 268.08"/>
    <path class="cls-17" d="M37.31,263.32s11.54-.16,11.49,10.28"/>
    <path class="cls-12" d="M95.96,311.31s-1.61-7.42-10.64-11.14-13.03-6.11-13.71-11.61l-12.58-.13s2.31-1.63,2.44-5.28l13.48.21.09,2.26c.05,2.31.07,3.49.35,4.34.75,2.21,3.04,6.05,10.04,8.82,0,0,8.27,3.52,10.53,12.53Z"/>
    <path class="cls-18" d="M61.73,283.67s.11-9.88-13.41-9.78"/>
    <path class="cls-19" d="M1.26,312.46s3.44-2.24,10.13-1.23c0,0,0-6.48,6.28-10.74,0,0,.47.07,0,1.37s-2.94,4.38-3.74,8.7c0,0,.8-1.17,2.65-1.05s2.47,1.11,2.47,1.11c0,0-1.6-10.67,4.44-14.74,0,0-4.13,12.03.49,15.48,0,0,2.53-.74,6.72.99,0,0-9.99-5.74-2.59-21.47,0,0-17.27,6.79-26.22-2.71,0,0,1.91,5.68,1.08,5.99,0,0,3.53,3.7,18.66.04,0,0-1.98,5.51-17.82,3.66,0,0,1.28,2.21-.04,4.01,0,0,4.81.31,11.95-2.78,0,0,.62.31-.04,1.01s-4.81,4.5-12.66,3.88c0,0,.85,6.12-1.76,8.47Z"/>
    <path class="cls-1" d="M68.7,296.91l3.81,2.46s-8.12,9.11-23.82,9.08c-15.7-.04-14.73-10.24-14.73-10.24,0,0,.26-9.58,11.8-10.04l-.13,1.48s-12.45,1.04-9.08,9.85c1.67,4.37,24.44,6.92,32.15-2.59Z"/>
    <path class="cls-19" d="M96.33,289.73v2.66s-3.69,13.73-17.74,21.54c0,0,.83-2.28,0-4.84,0,0,13.43-5.41,17.74-19.36Z"/>
    <polygon class="cls-1" points="55.63 286.68 51.92 289.09 51.96 292.93 67.32 292.77 72.51 299.37 68.7 296.91 67.14 293.29 51.46 293.39 51.46 288.76 55.63 286.68"/>
    <path class="cls-2" d="M86.62,287.89l-2.68,2.84s-7.92-7.33,3.59-13.92c0,0-6.69,7.28-.91,11.08Z"/>
    <path class="cls-13" d="M90.04,274.31s-5.26.82-9.88,2.51-4.51,2.44-13.74,3.19c0,0,.43-3.55-3.44-5.69,0,0,6.87,2.79,11.7,1.94s9.88-1.83,15.35-1.94Z"/>
    <polygon class="cls-1" points="45.63 289.65 46.43 289.34 46.43 282.42 45.28 282.8 45.02 289.65 45.63 289.65"/>
    <path class="cls-1" d="M21.54,257.37l-3.2-3.12s-11.83,6.65-11.78,19.53c.05,12.87,13.29,12.08,13.29,12.08,0,0,12.43-.21,13.03-9.67l-1.92.11s-1.35,10.2-12.79,7.44c-5.67-1.37-8.98-20.03,3.36-26.35Z"/>
    <polygon class="cls-1" points="30.96 276.36 31.3 275.7 38.75 275.7 38.33 276.65 30.96 276.86 30.96 276.36"/>
    <path class="cls-12" d="M4.86,237.09s8.68,1.19,13.06,8.14c4.38,6.95,7.2,10.02,13.62,10.5l.21,9.71s1.89-1.79,6.16-1.92l-.31-10.4-2.64-.05c-2.69-.02-4.08-.03-5.07-.24-2.59-.56-7.08-2.31-10.34-7.69,0,0-4.16-6.36-14.69-8.04Z"/>
    <path class="cls-13" d="M48.32,240.24s-1.01,4.29-3.07,8.06-2.98,3.68-3.9,11.22c0,0,4.35-.35,6.97,2.8,0,0-3.42-5.61-2.37-9.55s2.24-8.06,2.37-12.53Z"/>
    <path class="cls-2" d="M31.48,243.56l-3.58,1.97s10.01,6.16,17.85-4.08c0,0-9.22,7.07-14.27,2.12Z"/>
    <path class="cls-19" d="M30.14,235.24h-3.16s-16.32,2.88-25.61,13.87c0,0,2.71-.65,5.75,0,0,0,6.43-10.5,23.01-13.87Z"/>
    <path class="cls-19" d="M30.01,235.27h-3.29s-17.03-3.03-26.72-14.57c0,0,2.83.68,6,0,0,0,6.71,11.03,24.01,14.57Z"/>
    <path class="cls-2" d="M32.32,226.93l-3.52-2.2s9.09-6.51,17.26,2.95c0,0-9.03-5.5-13.74-.75Z"/>
    <path class="cls-13" d="M49.17,229.75s-1.02-4.32-3.11-8.11c-2.09-3.79-3.02-3.7-3.95-11.29,0,0,4.4.35,7.06-2.82,0,0-3.47,5.64-2.4,9.61s2.27,8.11,2.4,12.61Z"/>
    <path class="cls-12" d="M3.36,235.27s9.21-1.32,13.81-8.74,7.58-10.7,14.4-11.26l.16-10.34s2.02,1.9,6.55,2l-.26,11.07-2.8.07c-2.86.04-4.33.06-5.38.29-2.74.62-7.5,2.5-10.93,8.25,0,0-4.37,6.8-15.54,8.65Z"/>
    <polyline class="cls-16" points="25.93 198.49 26.03 210.33 21.38 212.89"/>
    <path class="cls-18" d="M37.65,207.15s12.25.09,12.13-11.01"/>
    <polygon class="cls-1" points="25.61 197.72 31.4 197.99 31.46 198.24 26.24 198.38 26.24 198.76 25.62 198.72 25.61 197.72"/>
    <path class="cls-19" d="M30.3,157h-3.29s-17.03,3.03-26.72,14.57c0,0,2.83-.68,6,0,0,0,6.71-11.03,24.01-14.57Z"/>
    <path class="cls-2" d="M32.32,165.33l-3.52,2.2s9.09,6.51,17.26-2.95c0,0-9.03,5.5-13.74.75Z"/>
    <path class="cls-13" d="M49.17,162.52s-1.02,4.32-3.11,8.11-3.02,3.7-3.95,11.29c0,0,4.4-.35,7.06,2.82,0,0-3.47-5.64-2.4-9.61,1.07-3.97,2.27-8.11,2.4-12.61Z"/>
    <path class="cls-12" d="M3.36,157s9.21,1.32,13.81,8.74c4.6,7.42,7.58,10.7,14.4,11.26l.16,10.34s2.02-1.9,6.55-2l-.26-11.07-2.8-.07c-2.86-.04-4.33-.06-5.38-.29-2.74-.62-7.5-2.5-10.93-8.25,0,0-4.37-6.8-15.54-8.65Z"/>
    <path class="cls-1" d="M13.62,196.13s-.43-9.94,8.25-16.72l-3.81-2.41s-10.54,3.88-11.44,19.13c.91,15.25,11.44,19.13,11.44,19.13l3.81-2.41c-8.68-6.78-8.25-16.72-8.25-16.72Z"/>
    <polyline class="cls-16" points="25.93 193.78 26.03 181.94 21.38 179.38"/>
    <path class="cls-1" d="M38.57,190.12c-6.16-1.12-7.18,4.17-7.18,4.17,2.1-1.7,4.25-2.82,5.88-1.62,1.63,1.2,1.29,3.47,1.29,3.47,0,0,.34,2.28-1.29,3.47s-3.79.08-5.88-1.62c0,0,1.01,5.29,7.18,4.17,6.16-1.12,6.05-6.02,6.05-6.02,0,0,.12-4.9-6.05-6.02Z"/>
    <path class="cls-18" d="M37.65,185.12s12.25-.09,12.13,11.01"/>
    <polygon class="cls-1" points="25.61 194.54 31.4 194.28 31.46 194.03 26.24 193.89 26.24 193.51 25.62 193.55 25.61 194.54"/>
    <path class="cls-19" d="M639.57,156.97h3.29s17.03-3.03,26.72-14.57c0,0-2.83.68-6,0,0,0-6.71,11.03-24.01,14.57Z"/>
    <path class="cls-2" d="M637.7,148.63l3.52-2.2s-9.09-6.51-17.26,2.95c0,0,9.03-5.5,13.74-.75Z"/>
    <path class="cls-13" d="M620.86,151.44s1.02-4.32,3.11-8.11c2.09-3.79,3.02-3.7,3.95-11.29,0,0-4.4.35-7.06-2.82,0,0,3.47,5.64,2.4,9.61-1.07,3.97-2.27,8.11-2.4,12.61Z"/>
    <path class="cls-12" d="M666.66,156.97s-9.21-1.32-13.81-8.74c-4.6-7.42-7.58-10.7-14.4-11.26l-.16-10.34s-2.02,1.9-6.55,2l.26,11.07,2.8.07c2.86.04,4.33.06,5.38.29,2.74.62,7.5,2.5,10.93,8.25,0,0,4.37,6.8,15.54,8.65Z"/>
    <polyline class="cls-16" points="644.09 120.19 643.99 132.03 648.64 134.58"/>
    <path class="cls-18" d="M632.37,128.85s-12.25.09-12.13-11.01"/>
    <polygon class="cls-1" points="644.41 119.42 638.62 119.68 638.56 119.94 643.78 120.08 643.78 120.45 644.4 120.42 644.41 119.42"/>
    <path class="cls-19" d="M639.51,78.7h3.29s17.03,3.03,26.72,14.57c0,0-2.83-.68-6,0,0,0-6.71-11.03-24.01-14.57Z"/>
    <path class="cls-2" d="M637.7,87.03l3.52,2.2s-9.09,6.51-17.26-2.95c0,0,9.03,5.5,13.74.75Z"/>
    <path class="cls-13" d="M620.86,84.22s1.02,4.32,3.11,8.11c2.09,3.79,3.02,3.7,3.95,11.29,0,0-4.4-.35-7.06,2.82,0,0,3.47-5.64,2.4-9.61s-2.27-8.11-2.4-12.61Z"/>
    <path class="cls-12" d="M666.66,78.7s-9.21,1.32-13.81,8.74-7.58,10.7-14.4,11.26l-.16,10.34s-2.02-1.9-6.55-2l.26-11.07,2.8-.07c2.86-.04,4.33-.06,5.38-.29,2.74-.62,7.5-2.5,10.93-8.25,0,0,4.37-6.8,15.54-8.65Z"/>
    <path class="cls-1" d="M651.96,98.7l-3.81,2.41c8.68,6.78,8.25,16.72,8.25,16.72,0,0,.43,9.94-8.25,16.72l3.81,2.41s10.54-3.88,11.44-19.13c-.91-15.25-11.44-19.13-11.44-19.13Z"/>
    <polyline class="cls-16" points="644.09 115.47 643.99 103.64 648.64 101.08"/>
    <path class="cls-1" d="M632.74,121.31c-1.63-1.2-1.29-3.47-1.29-3.47,0,0-.34-2.28,1.29-3.47,1.63-1.2,3.79-.08,5.88,1.62,0,0-1.01-5.29-7.18-4.17-6.16,1.12-6.05,6.02-6.05,6.02,0,0-.12,4.9,6.05,6.02,6.16,1.12,7.18-4.17,7.18-4.17-2.1,1.7-4.25,2.82-5.88,1.62Z"/>
    <path class="cls-18" d="M632.37,106.82s-12.25-.09-12.13,11.01"/>
    <polygon class="cls-1" points="644.41 116.24 638.62 115.98 638.56 115.73 643.78 115.59 643.78 115.21 644.4 115.25 644.41 116.24"/>
    <path class="cls-19" d="M638.96,235.21h3.29s17.03-3.03,26.72-14.57c0,0-2.83.68-6,0,0,0-6.71,11.03-24.01,14.57Z"/>
    <path class="cls-2" d="M637.55,226.91l3.52-2.2s-9.09-6.51-17.26,2.95c0,0,9.03-5.5,13.74-.75Z"/>
    <path class="cls-13" d="M620.7,229.72s1.02-4.32,3.11-8.11c2.09-3.79,3.02-3.7,3.95-11.29,0,0-4.4.35-7.06-2.82,0,0,3.47,5.64,2.4,9.61s-2.27,8.11-2.4,12.61Z"/>
    <path class="cls-12" d="M666.51,235.24s-9.21-1.32-13.81-8.74c-4.6-7.42-7.58-10.7-14.4-11.26l-.16-10.34s-2.02,1.9-6.55,2l.26,11.07,2.8.07c2.86.04,4.33.06,5.38.29,2.74.62,7.5,2.5,10.93,8.25,0,0,4.37,6.8,15.54,8.65Z"/>
    <polyline class="cls-16" points="643.94 198.46 643.84 210.3 648.49 212.86"/>
    <path class="cls-18" d="M632.22,207.12s-12.25.09-12.13-11.01"/>
    <polygon class="cls-1" points="644.26 197.7 638.47 197.96 638.41 198.21 643.63 198.35 643.63 198.73 644.25 198.69 644.26 197.7"/>
    <path class="cls-19" d="M639.57,156.97h3.29s17.03,3.03,26.72,14.57c0,0-2.83-.68-6,0,0,0-6.71-11.03-24.01-14.57Z"/>
    <path class="cls-2" d="M637.55,165.31l3.52,2.2s-9.09,6.51-17.26-2.95c0,0,9.03,5.5,13.74.75Z"/>
    <path class="cls-13" d="M620.7,162.49s1.02,4.32,3.11,8.11c2.09,3.79,3.02,3.7,3.95,11.29,0,0-4.4-.35-7.06,2.82,0,0,3.47-5.64,2.4-9.61-1.07-3.97-2.27-8.11-2.4-12.61Z"/>
    <path class="cls-12" d="M666.51,156.97s-9.21,1.32-13.81,8.74c-4.6,7.42-7.58,10.7-14.4,11.26l-.16,10.34s-2.02-1.9-6.55-2l.26-11.07,2.8-.07c2.86-.04,4.33-.06,5.38-.29,2.74-.62,7.5-2.5,10.93-8.25,0,0,4.37-6.8,15.54-8.65Z"/>
    <path class="cls-1" d="M651.81,176.97l-3.81,2.41c8.68,6.78,8.25,16.72,8.25,16.72,0,0,.43,9.94-8.25,16.72l3.81,2.41s10.54-3.88,11.44-19.13c-.91-15.25-11.44-19.13-11.44-19.13Z"/>
    <polyline class="cls-16" points="643.94 193.75 643.84 181.91 648.49 179.35"/>
    <path class="cls-1" d="M632.59,199.58c-1.63-1.2-1.29-3.47-1.29-3.47,0,0-.34-2.28,1.29-3.47,1.63-1.2,3.79-.08,5.88,1.62,0,0-1.01-5.29-7.18-4.17-6.16,1.12-6.05,6.02-6.05,6.02,0,0-.12,4.9,6.05,6.02,6.16,1.12,7.18-4.17,7.18-4.17-2.1,1.7-4.25,2.82-5.88,1.62Z"/>
    <path class="cls-18" d="M632.22,185.09s-12.25-.09-12.13,11.01"/>
    <polygon class="cls-1" points="644.26 194.52 638.47 194.25 638.41 194 643.63 193.86 643.63 193.48 644.25 193.52 644.26 194.52"/>
    <path class="cls-14" d="M154.42,177.75c-5.92-1.14-8.06,9.66-8.06,9.66,0,0-2.15-10.8-8.06-9.66-6.45,1.24-7.94,14.25,8.06,31.46,16-17.2,14.52-30.22,8.06-31.46Z"/>
    <path class="cls-14" d="M456.81,177.41c-5.92-1.14-8.06,9.66-8.06,9.66,0,0-2.15-10.8-8.06-9.66-6.45,1.24-7.94,14.25,8.06,31.46,16-17.2,14.52-30.22,8.06-31.46Z"/>
  </g>
</svg>